<svg width="343" height="344" viewBox="0 0 343 344" fill="none" xmlns="http://www.w3.org/2000/svg">
<path d="M165.155 324.766C165.425 324.795 165.639 324.906 165.796 325.099C165.952 325.293 166.016 325.525 165.988 325.795L164.22 342.574C164.192 342.845 164.081 343.058 163.887 343.215C163.694 343.372 163.462 343.436 163.192 343.407C162.921 343.379 162.707 343.268 162.551 343.074C162.394 342.881 162.33 342.649 162.359 342.378L163.143 334.931L151.495 333.705L150.711 341.152C150.683 341.422 150.572 341.636 150.378 341.792C150.185 341.949 149.953 342.013 149.682 341.984C149.412 341.956 149.198 341.845 149.042 341.651C148.885 341.458 148.821 341.226 148.849 340.955L150.617 324.176C150.645 323.906 150.756 323.692 150.95 323.536C151.143 323.379 151.375 323.315 151.646 323.343C151.916 323.372 152.13 323.483 152.286 323.676C152.443 323.87 152.507 324.102 152.478 324.372L151.671 332.034L163.319 333.261L164.126 325.599C164.154 325.329 164.265 325.115 164.459 324.958C164.652 324.802 164.884 324.738 165.155 324.766Z" fill="white" style="mix-blend-mode:difference"/>
<path d="M128.729 318.315C129.97 318.69 130.992 319.29 131.795 320.118C132.578 320.956 133.1 321.941 133.36 323.072C133.605 324.199 133.54 325.383 133.165 326.624C132.786 327.88 132.2 328.906 131.408 329.703C130.596 330.511 129.655 331.054 128.585 331.333C127.515 331.611 126.39 331.573 125.21 331.217C124.046 330.865 123.116 330.292 122.42 329.497C121.704 328.712 121.25 327.781 121.057 326.704C120.865 325.626 120.949 324.49 121.309 323.295C121.383 323.05 121.52 322.874 121.719 322.767C121.914 322.675 122.134 322.667 122.379 322.741L132.144 325.688L131.7 327.159L121.751 324.156L122.954 323.742C122.671 324.625 122.591 325.47 122.716 326.277C122.84 327.083 123.156 327.78 123.664 328.368C124.156 328.951 124.831 329.372 125.689 329.631C126.562 329.895 127.39 329.919 128.174 329.704C128.957 329.49 129.644 329.07 130.233 328.446C130.803 327.832 131.229 327.058 131.511 326.124C131.793 325.19 131.844 324.303 131.663 323.462C131.466 322.618 131.078 321.882 130.499 321.256C129.919 320.63 129.17 320.178 128.251 319.9C127.699 319.734 127.12 319.659 126.513 319.677C125.886 319.705 125.36 319.813 124.936 320.003C124.725 320.09 124.513 320.101 124.299 320.036C124.08 319.987 123.912 319.877 123.796 319.709C123.652 319.465 123.613 319.236 123.678 319.021C123.727 318.802 123.867 318.644 124.097 318.546C124.732 318.27 125.484 318.104 126.353 318.049C127.217 318.009 128.009 318.098 128.729 318.315Z" fill="white" style="mix-blend-mode:difference"/>
<path d="M108.39 310.845C108.973 311.108 109.425 311.506 109.747 312.037C110.054 312.562 110.211 313.168 110.216 313.855C110.207 314.536 110.035 315.248 109.699 315.992L104.069 328.46C103.957 328.707 103.796 328.871 103.584 328.951C103.351 329.039 103.111 329.027 102.863 328.915C102.615 328.804 102.454 328.634 102.381 328.408C102.286 328.19 102.295 327.957 102.407 327.709L108.037 315.241C108.32 314.614 108.427 314.048 108.356 313.542C108.272 313.03 108.033 312.685 107.639 312.507L107.092 312.26C106.873 312.161 106.735 312.002 106.676 311.782C106.61 311.577 106.634 311.351 106.746 311.103C106.857 310.855 107.044 310.694 107.306 310.619C107.547 310.552 107.814 310.585 108.105 310.716L108.39 310.845Z" fill="white" style="mix-blend-mode:difference"/>
<path d="M95.1362 303.981C95.6909 304.3 96.1023 304.74 96.3704 305.301C96.6246 305.853 96.7208 306.472 96.6591 307.156C96.5835 307.833 96.3421 308.525 95.9349 309.232L89.1094 321.087C88.9737 321.323 88.7966 321.47 88.5781 321.529C88.3378 321.594 88.0998 321.558 87.864 321.423C87.6283 321.287 87.485 321.103 87.4342 320.871C87.3615 320.644 87.393 320.413 87.5287 320.177L94.3542 308.322C94.6975 307.725 94.859 307.172 94.8388 306.662C94.8048 306.144 94.6006 305.777 94.2262 305.562L93.7062 305.262C93.4982 305.143 93.3757 304.97 93.3387 304.746C93.2938 304.536 93.3391 304.313 93.4749 304.077C93.6106 303.841 93.8125 303.699 94.0805 303.65C94.3268 303.607 94.5885 303.666 94.8659 303.825L95.1362 303.981Z" fill="white" style="mix-blend-mode:difference"/>
<path d="M80.0829 293.848C81.0929 294.634 81.8186 295.564 82.2602 296.638C82.7017 297.712 82.8401 298.823 82.6753 299.973C82.5106 301.122 82.0351 302.201 81.2487 303.211C80.4526 304.234 79.5177 304.966 78.4439 305.408C77.3702 305.849 76.2587 305.988 75.1095 305.823C73.9603 305.658 72.8807 305.183 71.8707 304.396C70.8607 303.61 70.1412 302.685 69.7123 301.621C69.2708 300.547 69.1324 299.436 69.2972 298.286C69.4619 297.137 69.936 296.046 70.7196 295.014C71.5059 294.004 72.4422 293.283 73.5286 292.851C74.6023 292.41 75.7138 292.271 76.863 292.436C77.9996 292.591 79.0729 293.062 80.0829 293.848ZM79.0508 295.174C78.3186 294.604 77.5294 294.263 76.6833 294.152C75.8371 294.04 75.019 294.154 74.2287 294.491C73.4385 294.829 72.7485 295.377 72.1588 296.134C71.5691 296.892 71.2073 297.695 71.0736 298.544C70.9301 299.406 71.016 300.233 71.3313 301.026C71.6467 301.819 72.1705 302.5 72.9027 303.071C73.635 303.641 74.4242 303.981 75.2703 304.093C76.1164 304.204 76.9458 304.089 77.7585 303.749C78.5487 303.411 79.2387 302.863 79.8284 302.106C80.4182 301.348 80.7799 300.545 80.9136 299.696C81.0347 298.837 80.9376 298.011 80.6222 297.218C80.3069 296.425 79.7831 295.744 79.0508 295.174Z" fill="white" style="mix-blend-mode:difference"/>
<path d="M60.604 282.604C60.7822 282.787 60.875 283.009 60.8823 283.27C60.867 283.53 60.7675 283.749 60.5838 283.927L51.522 292.716C51.3267 292.906 51.1047 292.998 50.8558 292.995C50.5843 292.99 50.3594 292.897 50.1812 292.713C49.9918 292.517 49.9048 292.29 49.9201 292.03C49.9239 291.781 50.0234 291.562 50.2187 291.372L59.2804 282.583C59.4642 282.405 59.6918 282.318 59.9633 282.322C60.2233 282.337 60.4369 282.431 60.604 282.604ZM63.6533 279.646C63.9206 279.922 64.0514 280.252 64.0455 280.636C64.0396 281.021 63.8989 281.347 63.6232 281.614C63.3361 281.893 63.0002 282.029 62.6156 282.023C62.231 282.017 61.905 281.877 61.6376 281.601C61.3703 281.325 61.2453 280.99 61.2626 280.594C61.2685 280.209 61.4093 279.883 61.6849 279.616C61.9606 279.349 62.2907 279.218 62.6753 279.224C63.0599 279.23 63.3859 279.37 63.6533 279.646Z" fill="white" style="mix-blend-mode:difference"/>
<path d="M29.272 268.955L42.4059 259.845L41.2706 258.208L28.1367 267.318L29.272 268.955ZM33.9155 264.069L35.2762 263.125L33.0876 259.97L31.7269 260.914L33.9155 264.069ZM51.9494 267.245L53.2903 266.315L45.0286 254.404L43.6876 255.334L51.9494 267.245ZM47.6306 270.241L52.4818 266.876L51.3465 265.239L46.4952 268.604L47.6306 270.241ZM35.5404 275.297C37.387 277.959 40.6026 278.679 43.1662 276.901C45.7496 275.109 46.1824 271.859 44.3358 269.197C42.4892 266.534 39.2934 265.801 36.71 267.593C34.1463 269.371 33.6938 272.635 35.5404 275.297ZM36.98 274.299C35.7763 272.563 36.0826 270.394 37.818 269.19C39.5731 267.973 41.6925 268.46 42.8962 270.195C44.0999 271.93 43.8134 274.086 42.0583 275.303C40.3229 276.507 38.1837 276.034 36.98 274.299Z" fill="white" style="mix-blend-mode:difference"/>
<path d="M17.3142 246.201L26.0161 242.754L25.2911 240.924L16.5893 244.372L17.3142 246.201ZM25.5698 242.93L27.1094 242.32L26.5082 240.803C25.0672 237.166 23.9431 234.72 22.1914 232.058L20.7937 232.896C22.4789 235.455 23.563 237.865 24.9686 241.413L25.5698 242.93ZM10.7519 233.158L23.113 228.26L22.3792 226.408L10.0181 231.306L10.7519 233.158ZM15.3537 237.865L16.804 237.291L14.364 231.133L12.9137 231.707L15.3537 237.865ZM18.9014 236.46L20.374 235.876L17.934 229.718L16.4613 230.302L18.9014 236.46ZM25.1834 232.964C26.8366 237.136 29.2589 239.145 31.6687 238.191C34.0784 237.236 34.4451 234.122 32.7919 229.949C31.1475 225.799 28.7475 223.781 26.3377 224.736C23.928 225.691 23.539 228.814 25.1834 232.964ZM26.656 232.38C25.4536 229.346 25.5901 227.149 27.0627 226.566C28.5353 225.982 30.1169 227.498 31.3193 230.533C32.5216 233.567 32.4075 235.755 30.9349 236.339C29.4623 236.922 27.8583 235.415 26.656 232.38Z" fill="white" style="mix-blend-mode:difference"/>
<path d="M1.36723 196.174L22.8258 192.974L22.532 191.003L1.07336 194.204L1.36723 196.174ZM9.95075 193.365L11.6124 193.117L11.0175 189.13L9.35593 189.377L9.95075 193.365ZM6.96996 210.31L8.5841 210.07L6.69697 197.418L5.08282 197.658L6.96996 210.31ZM9.40845 203.395C9.8581 206.41 12.2288 208.313 15.1248 207.881C18.0207 207.449 19.7329 204.937 19.2832 201.922C18.83 198.884 16.4629 197.004 13.5669 197.436C10.6709 197.868 8.95525 200.357 9.40845 203.395ZM11.0463 203.151C10.756 201.204 11.9001 199.602 13.8466 199.312C15.7693 199.025 17.355 200.22 17.6453 202.166C17.9357 204.113 16.7678 205.719 14.845 206.005C12.8986 206.296 11.3367 205.097 11.0463 203.151ZM3.00917 205.393L6.9021 204.812L6.60823 202.842L2.7153 203.423L3.00917 205.393Z" fill="white" style="mix-blend-mode:difference"/>
<path d="M7.6883 163.638L9.33886 163.773L9.67529 159.634L8.02473 159.5L7.6883 163.638ZM1.66644 167.218L5.78086 167.553C9.48863 167.854 13.2199 169.939 14.725 173.047L16.3332 171.926C14.6523 168.611 10.4284 166.365 5.90727 165.998L1.79284 165.663L1.66644 167.218ZM1.69755 166.835L5.74022 167.164C9.95033 167.506 14.3981 166.11 16.5646 163.156L15.103 161.881C13.1493 164.588 9.33323 165.915 5.86467 165.633L1.82201 165.305L1.69755 166.835ZM0.607422 155.068L22.2321 156.826L22.3877 154.913L0.762995 153.155L0.607422 155.068ZM0.706049 159.483L20.7998 161.116L20.9514 159.251L0.857733 157.617L0.706049 159.483Z" fill="white" style="mix-blend-mode:difference"/>
<path d="M16.1092 131.243L22.3026 133.229L22.9035 131.355L16.7101 129.369L16.1092 131.243ZM18.5568 123.61L24.7502 125.596L25.3585 123.699L19.1651 121.713L18.5568 123.61ZM20.4713 137.683L22.0482 138.188L28.05 119.471L26.4731 118.965L20.4713 137.683ZM8.30913 123.5C6.90211 127.888 7.97784 131.686 11.2231 132.726C14.4455 133.759 17.5291 131.295 18.9362 126.907C20.3358 122.542 19.2601 118.744 16.0377 117.711C12.7925 116.671 9.70882 119.135 8.30913 123.5ZM9.81748 123.983C10.8801 120.67 13.1432 118.799 15.4515 119.539C17.7369 120.272 18.4904 123.11 17.4278 126.424C16.3652 129.738 14.0947 131.631 11.8093 130.898C9.50111 130.158 8.75489 127.297 9.81748 123.983Z" fill="white" style="mix-blend-mode:difference"/>
<path d="M31.7779 102.776C31.661 103.004 31.4805 103.163 31.2362 103.253C30.9851 103.322 30.7456 103.298 30.5178 103.181L19.2856 97.4192C19.0436 97.295 18.8845 97.1145 18.8082 96.8776C18.725 96.6191 18.7418 96.376 18.8587 96.1482C18.9828 95.9062 19.1705 95.7507 19.4217 95.6817C19.6586 95.6055 19.8981 95.6294 20.1401 95.7536L31.3723 101.516C31.6001 101.633 31.7556 101.82 31.8388 102.079C31.9077 102.33 31.8874 102.562 31.7779 102.776ZM35.5575 104.715C35.3822 105.056 35.1115 105.286 34.7454 105.404C34.3792 105.522 34.0253 105.493 33.6836 105.318C33.3277 105.135 33.0908 104.861 32.973 104.495C32.8551 104.129 32.8838 103.775 33.0591 103.433C33.2344 103.091 33.5122 102.865 33.8926 102.755C34.2588 102.637 34.6127 102.666 34.9544 102.841C35.296 103.016 35.5258 103.287 35.6437 103.653C35.7615 104.019 35.7328 104.373 35.5575 104.715Z" fill="white" style="mix-blend-mode:difference"/>
<path d="M43.0958 90.8019C42.9357 91.0218 42.7327 91.151 42.4868 91.1897C42.2409 91.2283 42.008 91.1676 41.7882 91.0074L28.1503 81.074C27.9304 80.9139 27.8012 80.7108 27.7625 80.465C27.7239 80.2191 27.7847 79.9862 27.9448 79.7663C28.1049 79.5465 28.3079 79.4172 28.5538 79.3786C28.7997 79.34 29.0326 79.4007 29.2524 79.5608L35.3051 83.9694L42.2006 74.5025L36.1479 70.0939C35.9281 69.9337 35.7988 69.7307 35.7602 69.4848C35.7215 69.239 35.7823 69.0061 35.9424 68.7862C36.1026 68.5664 36.3056 68.4371 36.5515 68.3985C36.7973 68.3598 37.0302 68.4206 37.2501 68.5807L50.8879 78.5142C51.1078 78.6743 51.237 78.8773 51.2757 79.1232C51.3143 79.3691 51.2536 79.6019 51.0934 79.8218C50.9333 80.0417 50.7303 80.1709 50.4844 80.2096C50.2385 80.2482 50.0056 80.1875 49.7858 80.0273L43.5585 75.4916L36.6631 84.9585L42.8903 89.4943C43.1102 89.6544 43.2394 89.8574 43.2781 90.1033C43.3167 90.3492 43.256 90.5821 43.0958 90.8019Z" fill="white" style="mix-blend-mode:difference"/>
<path d="M66.9235 62.5055C65.9779 63.3918 64.9459 63.9753 63.8275 64.256C62.7098 64.5141 61.5962 64.4724 60.4866 64.1308C59.3887 63.7783 58.3966 63.1293 57.5103 62.1837C56.6131 61.2264 56.0179 60.2053 55.7248 59.1205C55.4324 58.013 55.4336 56.9264 55.7285 55.8605C56.0234 54.7947 56.6202 53.8406 57.5191 52.9981C58.4064 52.1665 59.3683 51.6487 60.405 51.4445C61.4425 51.2178 62.4758 51.2908 63.5052 51.6638C64.5345 52.0367 65.4759 52.6784 66.3293 53.589C66.5044 53.7758 66.5883 53.9823 66.5809 54.2084C66.5627 54.4229 66.4602 54.6177 66.2734 54.7927L58.8312 61.768L57.7808 60.6473L65.3631 53.5407L65.1189 54.7893C64.4959 54.1013 63.8044 53.6091 63.0443 53.3128C62.2841 53.0165 61.5225 52.9409 60.7594 53.086C60.0079 53.2202 59.3053 53.5936 58.6516 54.2063C57.9862 54.83 57.5502 55.5347 57.3436 56.3204C57.1371 57.106 57.1563 57.9104 57.4013 58.7333C57.6471 59.5336 58.1037 60.2899 58.7711 61.002C59.4386 61.7141 60.1812 62.2022 60.9989 62.4664C61.8284 62.7197 62.6593 62.7523 63.4918 62.5641C64.3242 62.376 65.0906 61.9537 65.7911 61.2972C66.2113 60.9033 66.5659 60.4394 66.8549 59.9054C67.1446 59.3488 67.3139 58.8392 67.3628 58.3767C67.3928 58.1513 67.4895 57.962 67.6529 57.8088C67.8054 57.644 67.9838 57.5535 68.1881 57.5375C68.4711 57.5353 68.6892 57.616 68.8424 57.7794C69.0073 57.9319 69.0744 58.1322 69.0437 58.3802C68.9648 59.0682 68.7316 59.802 68.3442 60.5819C67.9457 61.35 67.4722 61.9912 66.9235 62.5055Z" fill="white" style="mix-blend-mode:difference"/>
<path d="M83.5763 48.6421C83.0562 49.0151 82.4855 49.2077 81.8643 49.22C81.2561 49.2229 80.6532 49.0548 80.0555 48.7155C79.4709 48.3669 78.9408 47.861 78.4653 47.1978L70.4938 36.0804C70.3353 35.8594 70.2744 35.6372 70.3112 35.4139C70.3517 35.1683 70.4825 34.9663 70.7035 34.8078C70.9245 34.6493 71.1514 34.595 71.3839 34.6448C71.6202 34.6722 71.8176 34.7965 71.9761 35.0175L79.9476 46.135C80.3485 46.6941 80.7854 47.0699 81.2582 47.2625C81.7439 47.4458 82.1624 47.4115 82.5134 47.1598L83.0011 46.8102C83.1961 46.6703 83.4034 46.6299 83.623 46.6891C83.8332 46.7352 84.0176 46.8688 84.1761 47.0898C84.3346 47.3109 84.3806 47.5535 84.3142 47.8177C84.2514 48.0597 84.0899 48.2738 83.8299 48.4603L83.5763 48.6421Z" fill="white" style="mix-blend-mode:difference"/>
<path d="M96.1551 40.6088C95.6009 40.9289 95.0141 41.0646 94.3947 41.016C93.7892 40.9593 93.2056 40.7328 92.6441 40.3365C92.0964 39.9323 91.6185 39.3768 91.2104 38.6703L84.3675 26.8247C84.2314 26.5892 84.1926 26.3621 84.2511 26.1435C84.3155 25.9031 84.4654 25.7149 84.701 25.5788C84.9365 25.4427 85.1675 25.4109 85.3941 25.4833C85.6266 25.5338 85.8108 25.6768 85.9469 25.9123L92.7898 37.7579C93.1339 38.3536 93.5318 38.7705 93.9834 39.0085C94.4489 39.2385 94.8687 39.2455 95.2427 39.0294L95.7623 38.7293C95.9701 38.6092 96.1803 38.5894 96.3931 38.6697C96.5978 38.7362 96.7682 38.8873 96.9043 39.1228C97.0403 39.3583 97.0623 39.6043 96.9702 39.8607C96.884 40.0953 96.7024 40.2927 96.4253 40.4527L96.1551 40.6088Z" fill="white" style="mix-blend-mode:difference"/>
<path d="M112.465 32.6546C111.278 33.1349 110.11 33.2973 108.959 33.1417C107.809 32.9861 106.777 32.5492 105.865 31.831C104.953 31.1128 104.257 30.1605 103.776 28.9741C103.29 27.7728 103.125 26.5969 103.28 25.4464C103.436 24.2959 103.873 23.2646 104.591 22.3524C105.309 21.4402 106.262 20.744 107.448 20.2636C108.634 19.7833 109.795 19.6239 110.931 19.7855C112.082 19.9411 113.113 20.378 114.025 21.0962C114.937 21.8144 115.644 22.7711 116.145 23.9664C116.626 25.1528 116.78 26.3243 116.61 27.4808C116.454 28.6313 116.018 29.6626 115.299 30.5748C114.596 31.4809 113.651 32.1742 112.465 32.6546ZM111.834 31.0974C112.694 30.7491 113.385 30.2367 113.905 29.56C114.425 28.8834 114.736 28.1185 114.84 27.2653C114.943 26.4122 114.815 25.5407 114.454 24.6509C114.094 23.761 113.58 23.0456 112.912 22.5047C112.239 21.949 111.479 21.609 110.635 21.4848C109.791 21.3605 108.939 21.4726 108.078 21.8208C107.218 22.1691 106.528 22.6815 106.008 23.3582C105.488 24.0348 105.172 24.8101 105.06 25.6841C104.956 26.5372 105.085 27.4087 105.445 28.2986C105.805 29.1884 106.319 29.9038 106.987 30.4447C107.67 30.9796 108.433 31.3092 109.277 31.4334C110.122 31.5576 110.974 31.4456 111.834 31.0974Z" fill="white" style="mix-blend-mode:difference"/>
<path d="M131.953 21.4268C131.705 21.4891 131.466 21.4581 131.237 21.3341C131.02 21.1906 130.88 20.9948 130.818 20.7464L127.749 8.50111C127.683 8.23727 127.714 7.9986 127.842 7.78509C127.981 7.55218 128.175 7.40461 128.423 7.34238C128.687 7.27625 128.928 7.31492 129.145 7.45838C129.359 7.58632 129.499 7.7822 129.565 8.04605L132.633 20.2914C132.696 20.5397 132.657 20.7803 132.517 21.0132C132.374 21.2306 132.186 21.3685 131.953 21.4268ZM132.986 25.5474C132.613 25.6407 132.262 25.5886 131.932 25.3908C131.602 25.1931 131.39 24.908 131.297 24.5355C131.2 24.1475 131.25 23.7886 131.448 23.4586C131.646 23.1286 131.931 22.917 132.303 22.8236C132.676 22.7303 133.029 22.7902 133.363 23.0035C133.693 23.2012 133.904 23.4863 133.998 23.8588C134.091 24.2313 134.039 24.5825 133.841 24.9124C133.643 25.2424 133.358 25.4541 132.986 25.5474Z" fill="white" style="mix-blend-mode:difference"/>
<path d="M159.459 1.14382L160.766 17.0743L162.751 16.9114L161.444 0.980957L159.459 1.14382ZM161.362 7.60988L161.498 9.26033L165.325 8.94638L165.189 7.29592L161.362 7.60988ZM149.581 21.628L149.714 23.2546L164.162 22.0694L164.028 20.4429L149.581 21.628ZM149.151 16.3896L149.634 22.2739L151.619 22.111L151.136 16.2268L149.151 16.3896ZM150.83 3.39285C147.601 3.65775 145.368 6.08046 145.623 9.19002C145.88 12.3235 148.476 14.3259 151.705 14.061C154.934 13.7961 157.17 11.3973 156.913 8.26385C156.658 5.1543 154.059 3.12795 150.83 3.39285ZM150.973 5.13899C153.078 4.96631 154.803 6.31786 154.975 8.42279C155.15 10.5516 153.667 12.1422 151.562 12.3149C149.457 12.4876 147.735 11.1599 147.56 9.03108C147.388 6.92615 148.868 5.31166 150.973 5.13899Z" fill="white" style="mix-blend-mode:difference"/>
<path d="M185.142 2.18968L183.768 11.4483L185.715 11.7372L187.089 2.47858L185.142 2.18968ZM183.839 10.9735L183.595 12.6115L185.21 12.8511C189.079 13.4254 191.759 13.6775 194.941 13.4946L194.916 11.8652C191.857 12.0421 189.227 11.7732 185.453 11.2131L183.839 10.9735ZM199.719 3.04276L197.767 16.1947L199.737 16.4871L201.689 3.33518L199.719 3.04276ZM193.339 4.66783L193.11 6.21093L199.662 7.18333L199.891 5.64023L193.339 4.66783ZM192.779 8.44249L192.546 10.0093L199.099 10.9817L199.331 9.41489L192.779 8.44249ZM192.658 15.6307C188.219 14.9718 185.267 16.0623 184.886 18.6262C184.506 21.1901 187.018 23.0672 191.457 23.726C195.873 24.3813 198.821 23.3146 199.202 20.7507C199.582 18.1868 197.074 16.286 192.658 15.6307ZM192.426 17.1975C195.654 17.6767 197.488 18.8949 197.255 20.4618C197.022 22.0286 194.918 22.6383 191.69 22.1592C188.461 21.68 186.624 20.4855 186.857 18.9186C187.089 17.3518 189.197 16.7184 192.426 17.1975Z" fill="white" style="mix-blend-mode:difference"/>
<path d="M236.43 13.4429L228.452 33.6192L230.305 34.3516L238.282 14.1753L236.43 13.4429ZM234.562 22.2792L233.944 23.8415L237.694 25.324L238.311 23.7616L234.562 22.2792ZM221.388 11.2122L220.788 12.7299L232.684 17.4333L233.284 15.9156L221.388 11.2122ZM226.152 16.7864C223.318 15.6657 220.483 16.7645 219.407 19.4874C218.33 22.2103 219.647 24.9504 222.481 26.071C225.338 27.2006 228.15 26.093 229.227 23.3701C230.304 20.6472 229.009 17.9159 226.152 16.7864ZM225.543 18.3264C227.374 19.05 228.187 20.8428 227.464 22.673C226.749 24.4808 224.92 25.2546 223.09 24.531C221.26 23.8075 220.455 21.9923 221.17 20.1845C221.893 18.3544 223.713 17.6028 225.543 18.3264ZM227.628 10.2469L226.181 13.9072L228.033 14.6397L229.481 10.9794L227.628 10.2469Z" fill="white" style="mix-blend-mode:difference"/>
<path d="M261.424 35.2097L260.482 36.5711L263.895 38.935L264.838 37.5736L261.424 35.2097ZM261.342 28.2046L258.992 31.5983C256.874 34.6565 253.2 36.8417 249.756 36.5877L249.921 38.5413C253.632 38.7467 257.692 36.2155 260.274 32.4864L262.624 29.0928L261.342 28.2046ZM261.658 28.4232L259.348 31.7577C256.944 35.2303 255.924 39.7792 257.396 43.134L259.231 42.5074C257.867 39.4608 258.63 35.4931 260.611 32.6322L262.92 29.2977L261.658 28.4232ZM272.388 33.3732L260.036 51.2096L261.615 52.3027L273.967 34.4663L272.388 33.3732ZM268.518 31.2475L257.04 47.8212L258.579 48.887L270.057 32.3133L268.518 31.2475Z" fill="white" style="mix-blend-mode:difference"/>
<path d="M285.246 58.7233L280.425 63.0893L281.746 64.548L286.567 60.182L285.246 58.7233ZM290.627 64.6649L285.806 69.0308L287.143 70.5073L291.964 66.1414L290.627 64.6649ZM277.488 59.2737L276.26 60.3853L289.455 74.9546L290.682 73.843L277.488 59.2737ZM295.855 55.8504C292.762 52.4349 288.936 51.4638 286.41 53.7515C283.901 56.0231 284.49 59.9263 287.583 63.3418C290.66 66.7395 294.486 67.7105 296.994 65.439C299.52 63.1513 298.932 59.2481 295.855 55.8504ZM294.681 56.9137C297.017 59.4931 297.502 62.3887 295.705 64.0158C293.926 65.6269 291.093 64.8579 288.757 62.2785C286.421 59.6991 285.92 56.7857 287.698 55.1746C289.495 53.5475 292.345 54.3343 294.681 56.9137Z" fill="white" style="mix-blend-mode:difference"/>
<path d="M302.038 86.5429C301.899 86.3277 301.852 86.0917 301.896 85.835C301.962 85.583 302.103 85.3878 302.318 85.2491L312.931 78.4133C313.159 78.266 313.395 78.2186 313.639 78.2713C313.904 78.3288 314.106 78.4651 314.245 78.6803C314.392 78.909 314.433 79.1493 314.366 79.4012C314.314 79.6445 314.173 79.8398 313.944 79.987L303.331 86.8229C303.116 86.9616 302.876 87.0021 302.611 86.9447C302.359 86.8786 302.168 86.7447 302.038 86.5429ZM298.466 88.8432C298.258 88.5203 298.195 88.1709 298.277 87.795C298.358 87.419 298.56 87.1271 298.883 86.9192C299.219 86.7026 299.575 86.6349 299.951 86.7163C300.327 86.7977 300.619 86.9998 300.827 87.3226C301.035 87.6455 301.092 87.9992 300.997 88.3838C300.915 88.7598 300.713 89.0517 300.39 89.2597C300.068 89.4676 299.718 89.5309 299.342 89.4495C298.966 89.3681 298.674 89.166 298.466 88.8432Z" fill="white" style="mix-blend-mode:difference"/>
<path d="M306.733 102.336C306.623 102.087 306.613 101.847 306.702 101.615C306.792 101.383 306.961 101.211 307.21 101.101L322.638 94.2725C322.887 94.1624 323.128 94.1522 323.36 94.2419C323.592 94.3316 323.763 94.5008 323.873 94.7495C323.983 94.9983 323.993 95.2387 323.904 95.4709C323.814 95.7031 323.645 95.8742 323.396 95.9843L316.549 99.0151L321.289 109.725L328.136 106.694C328.385 106.584 328.626 106.574 328.858 106.663C329.09 106.753 329.261 106.922 329.371 107.171C329.481 107.42 329.491 107.66 329.402 107.892C329.312 108.125 329.143 108.296 328.894 108.406L313.466 115.235C313.217 115.345 312.977 115.355 312.745 115.265C312.512 115.176 312.341 115.006 312.231 114.758C312.121 114.509 312.111 114.269 312.201 114.036C312.29 113.804 312.459 113.633 312.708 113.523L319.753 110.405L315.013 99.695L307.968 102.813C307.719 102.923 307.479 102.933 307.246 102.844C307.014 102.754 306.843 102.585 306.733 102.336Z" fill="white" style="mix-blend-mode:difference"/>
<path d="M319.291 137.132C318.997 135.87 319.009 134.684 319.326 133.575C319.663 132.479 320.257 131.536 321.108 130.746C321.963 129.973 323.022 129.439 324.284 129.146C325.562 128.848 326.744 128.845 327.83 129.134C328.935 129.436 329.875 129.981 330.649 130.77C331.424 131.559 331.951 132.554 332.23 133.754C332.505 134.938 332.472 136.03 332.129 137.03C331.806 138.041 331.225 138.899 330.387 139.603C329.549 140.307 328.522 140.801 327.306 141.083C327.057 141.141 326.836 141.111 326.644 140.991C326.467 140.868 326.35 140.681 326.292 140.432L323.982 130.497L325.478 130.149L327.832 140.271L326.873 139.435C327.781 139.24 328.553 138.888 329.19 138.378C329.828 137.869 330.274 137.247 330.531 136.514C330.791 135.797 330.82 135.002 330.617 134.129C330.411 133.241 330.019 132.51 329.442 131.938C328.866 131.366 328.16 130.979 327.325 130.779C326.509 130.591 325.626 130.608 324.675 130.829C323.725 131.05 322.93 131.448 322.292 132.023C321.657 132.615 321.213 133.317 320.959 134.132C320.705 134.947 320.686 135.822 320.904 136.757C321.034 137.318 321.258 137.857 321.576 138.375C321.912 138.904 322.269 139.306 322.644 139.58C322.825 139.719 322.94 139.897 322.991 140.115C323.057 140.33 323.046 140.53 322.958 140.715C322.818 140.961 322.639 141.109 322.42 141.16C322.206 141.226 321.999 141.184 321.8 141.033C321.244 140.62 320.725 140.051 320.244 139.325C319.779 138.595 319.461 137.864 319.291 137.132Z" fill="white" style="mix-blend-mode:difference"/>
<path d="M322.95 158.489C322.887 157.852 323.006 157.262 323.307 156.718C323.609 156.19 324.056 155.752 324.649 155.405C325.244 155.073 325.947 154.868 326.759 154.788L340.375 153.457C340.645 153.43 340.868 153.489 341.043 153.633C341.235 153.791 341.344 154.005 341.371 154.276C341.397 154.547 341.331 154.77 341.171 154.946C341.029 155.137 340.823 155.246 340.552 155.272L326.937 156.604C326.252 156.671 325.708 156.861 325.305 157.173C324.903 157.502 324.723 157.881 324.765 158.311L324.823 158.908C324.847 159.147 324.778 159.347 324.617 159.507C324.471 159.666 324.263 159.759 323.993 159.785C323.722 159.812 323.489 159.73 323.294 159.54C323.116 159.365 323.011 159.118 322.98 158.799L322.95 158.489Z" fill="white" style="mix-blend-mode:difference"/>
<path d="M323.603 173.4C323.603 172.76 323.779 172.184 324.132 171.672C324.484 171.176 324.973 170.785 325.597 170.497C326.221 170.226 326.941 170.09 327.757 170.091L341.437 170.101C341.709 170.101 341.925 170.181 342.085 170.341C342.261 170.517 342.349 170.741 342.348 171.013C342.348 171.285 342.26 171.501 342.084 171.661C341.924 171.837 341.708 171.925 341.436 171.925L327.756 171.915C327.068 171.914 326.508 172.05 326.075 172.322C325.643 172.609 325.427 172.969 325.427 173.401L325.426 174.001C325.426 174.241 325.338 174.433 325.162 174.577C325.002 174.721 324.786 174.793 324.514 174.792C324.242 174.792 324.018 174.688 323.842 174.48C323.682 174.288 323.602 174.032 323.602 173.712L323.603 173.4Z" fill="white" style="mix-blend-mode:difference"/>
<path d="M322.319 191.5C322.497 190.233 322.942 189.14 323.653 188.222C324.364 187.304 325.258 186.63 326.337 186.201C327.415 185.771 328.588 185.645 329.856 185.824C331.139 186.004 332.24 186.45 333.158 187.161C334.075 187.872 334.749 188.767 335.179 189.845C335.609 190.923 335.735 192.096 335.556 193.364C335.378 194.631 334.934 195.716 334.225 196.618C333.514 197.536 332.62 198.21 331.541 198.64C330.463 199.07 329.281 199.202 327.995 199.037C326.728 198.859 325.636 198.406 324.721 197.679C323.803 196.968 323.129 196.074 322.699 194.995C322.267 193.933 322.14 192.768 322.319 191.5ZM323.982 191.734C323.853 192.653 323.951 193.507 324.276 194.296C324.601 195.085 325.107 195.738 325.794 196.255C326.48 196.772 327.299 197.097 328.25 197.231C329.2 197.365 330.077 197.278 330.879 196.971C331.698 196.666 332.372 196.18 332.903 195.511C333.433 194.842 333.763 194.049 333.893 193.13C334.022 192.211 333.924 191.357 333.599 190.568C333.274 189.779 332.761 189.117 332.061 188.582C331.374 188.065 330.555 187.74 329.605 187.606C328.654 187.472 327.778 187.559 326.975 187.866C326.17 188.189 325.502 188.685 324.972 189.353C324.442 190.022 324.112 190.815 323.982 191.734Z" fill="white" style="mix-blend-mode:difference"/>
<path d="M322.276 213.992C322.347 213.746 322.493 213.554 322.715 213.418C322.948 213.302 323.187 213.279 323.434 213.35L335.569 216.827C335.831 216.901 336.022 217.048 336.143 217.265C336.274 217.503 336.305 217.745 336.234 217.991C336.16 218.252 336.006 218.441 335.772 218.557C335.555 218.678 335.315 218.701 335.054 218.626L322.918 215.149C322.672 215.079 322.483 214.925 322.351 214.687C322.235 214.454 322.21 214.222 322.276 213.992ZM318.192 212.822C318.298 212.453 318.519 212.175 318.856 211.988C319.192 211.802 319.545 211.761 319.914 211.867C320.298 211.977 320.584 212.2 320.771 212.537C320.957 212.873 320.997 213.226 320.892 213.595C320.786 213.964 320.557 214.24 320.205 214.422C319.869 214.609 319.516 214.649 319.147 214.543C318.778 214.437 318.5 214.216 318.314 213.88C318.127 213.544 318.087 213.191 318.192 212.822Z" fill="white" style="mix-blend-mode:difference"/>
<path d="M326.055 247.958L311.612 241.11L310.759 242.91L325.202 249.758L326.055 247.958ZM319.506 246.366L318.009 245.657L316.364 249.127L317.86 249.836L319.506 246.366ZM313.273 229.148L311.798 228.449L305.588 241.548L307.063 242.247L313.273 229.148ZM318.022 231.4L312.687 228.871L311.834 230.671L317.169 233.2L318.022 231.4ZM328.43 239.363C329.819 236.435 328.84 233.288 326.021 231.952C323.18 230.605 320.147 231.849 318.758 234.777C317.37 237.705 318.327 240.841 321.168 242.188C323.987 243.524 327.042 242.29 328.43 239.363ZM326.847 238.612C325.943 240.52 323.909 241.336 322.001 240.431C320.071 239.516 319.437 237.436 320.342 235.528C321.246 233.619 323.258 232.793 325.188 233.708C327.097 234.613 327.752 236.704 326.847 238.612Z" fill="white" style="mix-blend-mode:difference"/>
<path d="M312.287 269.663L304.961 263.837L303.736 265.377L311.062 271.204L312.287 269.663ZM305.337 264.136L304.041 263.105L303.025 264.382C300.59 267.444 299.029 269.637 297.594 272.482L299.017 273.277C300.396 270.54 301.946 268.4 304.321 265.413L305.337 264.136ZM304.248 281.853L293.842 273.576L292.602 275.135L303.008 283.412L304.248 281.853ZM306.036 275.517L304.815 274.546L300.692 279.73L301.913 280.701L306.036 275.517ZM303.05 273.142L301.81 272.156L297.687 277.34L298.927 278.326L303.05 273.142ZM296.889 269.437C299.682 265.925 300.217 262.823 298.188 261.21C296.16 259.596 293.277 260.83 290.483 264.343C287.705 267.836 287.151 270.923 289.18 272.536C291.208 274.15 294.11 272.931 296.889 269.437ZM295.649 268.451C293.617 271.006 291.645 271.982 290.405 270.996C289.165 270.01 289.691 267.883 291.723 265.329C293.755 262.774 295.709 261.783 296.948 262.769C298.188 263.755 297.681 265.897 295.649 268.451Z" fill="white" style="mix-blend-mode:difference"/>
<path d="M276.859 308.418L263.392 291.408L261.83 292.645L275.298 309.655L276.859 308.418ZM270.147 302.376L269.104 301.059L265.943 303.562L266.986 304.879L270.147 302.376ZM286.324 296.517L285.311 295.237L275.282 303.178L276.295 304.457L286.324 296.517ZM279.113 297.848C281.502 295.956 281.971 292.953 280.154 290.657C278.336 288.361 275.305 288.129 272.915 290.021C270.507 291.928 270.057 294.917 271.874 297.212C273.692 299.508 276.704 299.755 279.113 297.848ZM278.085 296.55C276.542 297.772 274.583 297.578 273.361 296.035C272.154 294.511 272.4 292.541 273.943 291.319C275.486 290.098 277.46 290.31 278.667 291.834C279.889 293.377 279.628 295.328 278.085 296.55ZM284.034 302.401L281.591 299.315L280.029 300.552L282.472 303.638L284.034 302.401Z" fill="white" style="mix-blend-mode:difference"/>
<path d="M245.501 319.15L244.795 317.653L241.039 319.423L241.746 320.921L245.501 319.15ZM251.606 322.588L249.845 318.854C248.259 315.489 248.208 311.215 250.152 308.361L248.379 307.525C246.342 310.635 246.5 315.416 248.434 319.519L250.195 323.253L251.606 322.588ZM251.258 322.751L249.529 319.083C247.728 315.262 244.301 312.101 240.66 311.695L240.283 313.597C243.603 313.943 246.655 316.59 248.139 319.737L249.869 323.406L251.258 322.751ZM241.599 329.56L232.348 309.935L230.611 310.754L239.863 330.379L241.599 329.56ZM245.378 327.275L236.781 309.039L235.088 309.838L243.684 328.073L245.378 327.275Z" fill="white" style="mix-blend-mode:difference"/>
<path d="M213.218 327.992L211.854 321.633L209.93 322.046L211.294 328.405L213.218 327.992ZM205.381 329.674L204.016 323.314L202.068 323.732L203.433 330.091L205.381 329.674ZM216.628 321.001L216.28 319.382L197.061 323.505L197.409 325.125L216.628 321.001ZM210.391 338.613C214.897 337.647 217.653 334.822 216.939 331.489C216.229 328.181 212.556 326.735 208.05 327.702C203.568 328.663 200.812 331.488 201.521 334.797C202.236 338.129 205.909 339.575 210.391 338.613ZM210.059 337.065C206.656 337.795 203.907 336.764 203.399 334.394C202.895 332.048 204.98 329.98 208.383 329.25C211.785 328.52 214.558 329.546 215.061 331.892C215.57 334.262 213.462 336.335 210.059 337.065Z" fill="white" style="mix-blend-mode:difference"/>
<path d="M180.729 328.593C180.985 328.581 181.213 328.658 181.413 328.825C181.598 329.008 181.696 329.228 181.709 329.483L182.31 342.093C182.323 342.365 182.246 342.593 182.078 342.777C181.896 342.978 181.676 343.084 181.421 343.096C181.149 343.109 180.921 343.024 180.736 342.841C180.551 342.673 180.453 342.454 180.44 342.182L179.839 329.572C179.827 329.317 179.912 329.088 180.094 328.887C180.278 328.703 180.489 328.604 180.729 328.593ZM180.527 324.35C180.91 324.331 181.244 324.452 181.529 324.71C181.814 324.969 181.965 325.29 181.984 325.674C182.003 326.073 181.883 326.415 181.624 326.7C181.365 326.985 181.044 327.136 180.661 327.155C180.277 327.173 179.942 327.045 179.657 326.77C179.372 326.511 179.221 326.19 179.203 325.806C179.184 325.423 179.305 325.089 179.563 324.804C179.822 324.519 180.143 324.368 180.527 324.35Z" fill="white" style="mix-blend-mode:difference"/>
</svg>
