<svg width="347" height="347" viewBox="0 0 347 347" fill="none" xmlns="http://www.w3.org/2000/svg">
<path d="M167.155 325.766C167.425 325.795 167.639 325.906 167.796 326.099C167.952 326.292 168.016 326.524 167.988 326.795L166.22 343.574C166.192 343.845 166.081 344.058 165.888 344.215C165.694 344.371 165.462 344.435 165.192 344.407C164.921 344.378 164.708 344.268 164.551 344.074C164.394 343.881 164.33 343.649 164.359 343.378L165.143 335.931L153.496 334.705L152.711 342.151C152.683 342.422 152.572 342.635 152.378 342.792C152.185 342.949 151.953 343.013 151.682 342.984C151.412 342.956 151.198 342.845 151.042 342.651C150.885 342.458 150.821 342.226 150.85 341.955L152.617 325.176C152.645 324.906 152.756 324.692 152.95 324.535C153.143 324.379 153.375 324.315 153.646 324.343C153.916 324.372 154.13 324.483 154.286 324.676C154.443 324.87 154.507 325.102 154.478 325.372L153.672 333.034L165.319 334.261L166.126 326.599C166.155 326.328 166.266 326.115 166.459 325.958C166.652 325.802 166.884 325.738 167.155 325.766Z" fill="black"/>
<path d="M130.729 319.315C131.97 319.689 132.992 320.29 133.795 321.118C134.578 321.956 135.1 322.941 135.36 324.072C135.605 325.199 135.54 326.383 135.165 327.623C134.786 328.879 134.2 329.906 133.408 330.703C132.596 331.511 131.655 332.054 130.585 332.333C129.515 332.611 128.39 332.572 127.21 332.216C126.046 331.865 125.116 331.292 124.42 330.497C123.704 329.712 123.25 328.781 123.057 327.703C122.865 326.626 122.949 325.49 123.309 324.295C123.383 324.05 123.52 323.874 123.719 323.767C123.914 323.675 124.134 323.666 124.379 323.74L134.144 326.688L133.7 328.159L123.751 325.155L124.954 324.741C124.671 325.625 124.591 326.47 124.716 327.276C124.84 328.083 125.156 328.78 125.664 329.368C126.156 329.951 126.831 330.372 127.689 330.631C128.562 330.895 129.39 330.919 130.174 330.704C130.957 330.49 131.644 330.07 132.233 329.446C132.803 328.832 133.229 328.058 133.511 327.124C133.793 326.19 133.844 325.302 133.663 324.462C133.466 323.617 133.079 322.882 132.499 322.256C131.919 321.629 131.17 321.178 130.251 320.9C129.699 320.734 129.12 320.659 128.513 320.676C127.886 320.704 127.36 320.813 126.936 321.002C126.725 321.089 126.513 321.1 126.299 321.036C126.08 320.986 125.912 320.877 125.796 320.708C125.652 320.465 125.613 320.235 125.678 320.021C125.727 319.802 125.867 319.643 126.097 319.546C126.732 319.269 127.484 319.104 128.353 319.049C129.217 319.009 130.009 319.097 130.729 319.315Z" fill="black"/>
<path d="M110.389 311.845C110.973 312.108 111.425 312.505 111.747 313.037C112.054 313.562 112.21 314.168 112.216 314.855C112.207 315.536 112.035 316.248 111.699 316.992L106.069 329.459C105.957 329.707 105.795 329.871 105.584 329.951C105.351 330.039 105.11 330.027 104.863 329.915C104.615 329.803 104.454 329.634 104.381 329.408C104.286 329.19 104.295 328.957 104.407 328.709L110.037 316.241C110.32 315.614 110.426 315.048 110.356 314.542C110.272 314.03 110.032 313.685 109.639 313.507L109.092 313.26C108.873 313.161 108.734 313.002 108.675 312.782C108.61 312.577 108.633 312.351 108.745 312.103C108.857 311.855 109.044 311.694 109.306 311.619C109.547 311.552 109.813 311.584 110.105 311.716L110.389 311.845Z" fill="black"/>
<path d="M97.1359 304.981C97.6905 305.3 98.1019 305.74 98.37 306.301C98.6242 306.853 98.7204 307.472 98.6587 308.156C98.5831 308.833 98.3417 309.524 97.9346 310.232L91.1091 322.087C90.9734 322.323 90.7963 322.47 90.5778 322.529C90.3374 322.594 90.0994 322.558 89.8637 322.423C89.6279 322.287 89.4847 322.103 89.4338 321.87C89.3611 321.644 89.3926 321.413 89.5283 321.177L96.3538 309.322C96.6971 308.725 96.8586 308.172 96.8385 307.662C96.8044 307.144 96.6002 306.777 96.2258 306.562L95.7058 306.262C95.4978 306.142 95.3753 305.97 95.3384 305.746C95.2934 305.536 95.3388 305.312 95.4745 305.077C95.6102 304.841 95.8121 304.699 96.0802 304.65C96.3264 304.607 96.5882 304.665 96.8655 304.825L97.1359 304.981Z" fill="black"/>
<path d="M82.0829 294.848C83.0929 295.634 83.8187 296.564 84.2602 297.638C84.7017 298.712 84.8401 299.823 84.6754 300.972C84.5107 302.121 84.0351 303.201 83.2488 304.211C82.4527 305.234 81.5177 305.966 80.444 306.407C79.3702 306.849 78.2588 306.987 77.1096 306.822C75.9603 306.658 74.8807 306.182 73.8707 305.396C72.8607 304.61 72.1413 303.684 71.7124 302.621C71.2709 301.547 71.1325 300.435 71.2972 299.286C71.4619 298.137 71.9361 297.046 72.7196 296.014C73.5059 295.004 74.4423 294.283 75.5286 293.851C76.6024 293.41 77.7138 293.271 78.8631 293.436C79.9996 293.591 81.0729 294.061 82.0829 294.848ZM81.0509 296.173C80.3186 295.603 79.5294 295.263 78.6833 295.151C77.8372 295.04 77.019 295.153 76.2288 295.491C75.4386 295.829 74.7486 296.377 74.1589 297.134C73.5691 297.892 73.2074 298.695 73.0737 299.544C72.9301 300.405 73.016 301.233 73.3314 302.026C73.6467 302.819 74.1705 303.5 74.9028 304.07C75.635 304.64 76.4242 304.981 77.2704 305.092C78.1165 305.204 78.9459 305.089 79.7586 304.748C80.5488 304.41 81.2388 303.863 81.8285 303.105C82.4182 302.348 82.78 301.545 82.9137 300.696C83.0348 299.837 82.9377 299.011 82.6223 298.218C82.3069 297.425 81.7831 296.743 81.0509 296.173Z" fill="black"/>
<path d="M62.6036 283.603C62.7818 283.787 62.8746 284.009 62.882 284.269C62.8667 284.529 62.7672 284.748 62.5834 284.927L53.5216 293.716C53.3264 293.905 53.1043 293.998 52.8555 293.994C52.584 293.99 52.3591 293.896 52.1809 293.712C51.9915 293.517 51.9044 293.29 51.9197 293.029C51.9235 292.781 52.023 292.561 52.2183 292.372L61.2801 283.583C61.4638 283.405 61.6915 283.318 61.963 283.322C62.223 283.337 62.4365 283.431 62.6036 283.603ZM65.6529 280.646C65.9203 280.921 66.051 281.251 66.0451 281.636C66.0393 282.021 65.8985 282.347 65.6229 282.614C65.3357 282.892 64.9999 283.029 64.6152 283.023C64.2306 283.017 63.9046 282.876 63.6373 282.601C63.3699 282.325 63.2449 281.989 63.2623 281.593C63.2682 281.209 63.4089 280.883 63.6846 280.616C63.9602 280.348 64.2903 280.217 64.675 280.223C65.0596 280.229 65.3856 280.37 65.6529 280.646Z" fill="black"/>
<path d="M31.2718 269.955L44.4057 260.845L43.2703 259.208L30.1365 268.318L31.2718 269.955ZM35.9153 265.069L37.276 264.125L35.0874 260.97L33.7267 261.914L35.9153 265.069ZM53.9491 268.245L55.2901 267.315L47.0283 255.404L45.6873 256.334L53.9491 268.245ZM49.6303 271.241L54.4816 267.876L53.3463 266.239L48.495 269.604L49.6303 271.241ZM37.5402 276.297C39.3868 278.959 42.6023 279.679 45.166 277.901C47.7494 276.109 48.1822 272.859 46.3356 270.196C44.489 267.534 41.2932 266.801 38.7098 268.593C36.1461 270.371 35.6936 273.635 37.5402 276.297ZM38.9798 275.299C37.7761 273.563 38.0823 271.394 39.8177 270.19C41.5729 268.973 43.6923 269.46 44.896 271.195C46.0997 272.93 45.8132 275.086 44.058 276.303C42.3226 277.507 40.1835 277.034 38.9798 275.299Z" fill="black"/>
<path d="M19.3143 247.201L28.0161 243.753L27.2912 241.924L18.5894 245.371L19.3143 247.201ZM27.5699 243.93L29.1094 243.32L28.5083 241.803C27.0672 238.166 25.9432 235.72 24.1915 233.058L22.7938 233.896C24.479 236.455 25.563 238.865 26.9687 242.413L27.5699 243.93ZM12.752 234.157L25.113 229.259L24.3792 227.407L12.0182 232.305L12.752 234.157ZM17.3538 238.865L18.8041 238.29L16.364 232.132L14.9137 232.707L17.3538 238.865ZM20.9014 237.459L22.3741 236.876L19.934 230.718L18.4614 231.301L20.9014 237.459ZM27.1834 233.964C28.8366 238.136 31.259 240.145 33.6687 239.19C36.0785 238.235 36.4452 235.121 34.792 230.949C33.1476 226.799 30.7475 224.781 28.3378 225.736C25.9281 226.691 25.5391 229.813 27.1834 233.964ZM28.656 233.38C27.4537 230.346 27.5901 228.149 29.0627 227.565C30.5354 226.982 32.117 228.498 33.3193 231.532C34.5217 234.567 34.4076 236.755 32.935 237.338C31.4623 237.922 29.8584 236.415 28.656 233.38Z" fill="black"/>
<path d="M3.36711 197.174L24.8257 193.973L24.5319 192.003L3.07325 195.204L3.36711 197.174ZM11.9506 194.365L13.6123 194.117L13.0174 190.129L11.3558 190.377L11.9506 194.365ZM8.96984 211.31L10.584 211.069L8.69685 198.417L7.08271 198.658L8.96984 211.31ZM11.4083 204.395C11.858 207.409 14.2287 209.312 17.1246 208.88C20.0206 208.448 21.7327 205.936 21.2831 202.922C20.8299 199.883 18.4627 198.004 15.5668 198.436C12.6708 198.868 10.9551 201.356 11.4083 204.395ZM13.0462 204.15C12.7559 202.204 13.9 200.602 15.8465 200.311C17.7692 200.024 19.3549 201.22 19.6452 203.166C19.9355 205.112 18.7677 206.718 16.8449 207.005C14.8985 207.295 13.3365 206.097 13.0462 204.15ZM5.00905 206.393L8.90199 205.812L8.60812 203.842L4.71519 204.422L5.00905 206.393Z" fill="black"/>
<path d="M9.68818 164.638L11.3387 164.772L11.6752 160.634L10.0246 160.5L9.68818 164.638ZM3.66631 168.218L7.78074 168.552C11.4885 168.854 15.2198 170.939 16.7249 174.047L18.3331 172.926C16.6522 169.611 12.4282 167.365 7.90714 166.997L3.79271 166.663L3.66631 168.218ZM3.69742 167.835L7.74009 168.164C11.9502 168.506 16.398 167.11 18.5644 164.156L17.1029 162.881C15.1492 165.588 11.3331 166.915 7.86455 166.633L3.82188 166.304L3.69742 167.835ZM2.60729 156.068L24.232 157.826L24.3875 155.912L2.76287 154.154L2.60729 156.068ZM2.70592 160.482L22.7996 162.116L22.9513 160.25L2.85761 158.617L2.70592 160.482Z" fill="black"/>
<path d="M18.1092 132.243L24.3026 134.229L24.9035 132.355L18.7101 130.369L18.1092 132.243ZM20.5568 124.61L26.7502 126.596L27.3584 124.699L21.1651 122.713L20.5568 124.61ZM22.4713 138.683L24.0482 139.188L30.05 120.471L28.4731 119.965L22.4713 138.683ZM10.3091 124.5C8.90208 128.888 9.97782 132.685 13.2231 133.726C16.4454 134.759 19.5291 132.295 20.9361 127.907C22.3358 123.542 21.2601 119.744 18.0377 118.711C14.7925 117.67 11.7088 120.135 10.3091 124.5ZM11.8175 124.983C12.88 121.67 15.1432 119.799 17.4514 120.539C19.7368 121.272 20.4904 124.11 19.4278 127.424C18.3652 130.737 16.0947 132.631 13.8093 131.898C11.5011 131.158 10.7549 128.297 11.8175 124.983Z" fill="black"/>
<path d="M33.7777 103.776C33.6608 104.004 33.4803 104.163 33.236 104.253C32.9849 104.322 32.7454 104.298 32.5176 104.181L21.2854 98.4191C21.0434 98.2949 20.8843 98.1144 20.808 97.8775C20.7248 97.619 20.7416 97.3759 20.8585 97.1481C20.9826 96.9061 21.1703 96.7506 21.4215 96.6817C21.6584 96.6054 21.8979 96.6293 22.1399 96.7535L33.3721 102.516C33.5999 102.633 33.7553 102.82 33.8385 103.079C33.9075 103.33 33.8872 103.562 33.7777 103.776ZM37.5573 105.715C37.382 106.056 37.1113 106.286 36.7452 106.404C36.379 106.522 36.0251 106.493 35.6834 106.318C35.3275 106.135 35.0906 105.861 34.9728 105.495C34.8549 105.129 34.8836 104.775 35.0589 104.433C35.2342 104.091 35.512 103.865 35.8924 103.755C36.2586 103.637 36.6125 103.666 36.9542 103.841C37.2958 104.016 37.5256 104.287 37.6434 104.653C37.7613 105.019 37.7326 105.373 37.5573 105.715Z" fill="black"/>
<path d="M45.0959 91.8016C44.9357 92.0214 44.7327 92.1507 44.4868 92.1893C44.241 92.228 44.0081 92.1672 43.7882 92.0071L30.1504 82.0736C29.9305 81.9135 29.8013 81.7105 29.7626 81.4646C29.724 81.2187 29.7847 80.9858 29.9449 80.766C30.105 80.5461 30.308 80.4169 30.5539 80.3782C30.7998 80.3396 31.0327 80.4003 31.2525 80.5605L37.3052 84.969L44.2006 75.5021L38.148 71.0935C37.9281 70.9334 37.7989 70.7303 37.7602 70.4845C37.7216 70.2386 37.7823 70.0057 37.9425 69.7858C38.1026 69.566 38.3056 69.4367 38.5515 69.3981C38.7974 69.3594 39.0303 69.4202 39.2501 69.5803L52.888 79.5138C53.1079 79.6739 53.2371 79.8769 53.2757 80.1228C53.3144 80.3687 53.2536 80.6016 53.0935 80.8214C52.9334 81.0413 52.7303 81.1705 52.4845 81.2092C52.2386 81.2478 52.0057 81.1871 51.7858 81.0269L45.5586 76.4912L38.6631 85.9582L44.8904 90.4939C45.1102 90.654 45.2395 90.8571 45.2781 91.1029C45.3168 91.3488 45.256 91.5817 45.0959 91.8016Z" fill="black"/>
<path d="M68.9236 63.5053C67.978 64.3916 66.946 64.9751 65.8276 65.2558C64.7099 65.5139 63.5963 65.4722 62.4867 65.1307C61.3888 64.7782 60.3967 64.1291 59.5104 63.1835C58.6132 62.2262 58.018 61.2052 57.7249 60.1203C57.4325 59.0129 57.4337 57.9262 57.7286 56.8604C58.0235 55.7946 58.6204 54.8404 59.5193 53.9979C60.4065 53.1664 61.3684 52.6485 62.4051 52.4444C63.4426 52.2176 64.4759 52.2907 65.5053 52.6636C66.5346 53.0365 67.476 53.6783 68.3294 54.5889C68.5045 54.7756 68.5884 54.9821 68.581 55.2083C68.5628 55.4227 68.4603 55.6175 68.2735 55.7926L60.8313 62.7678L59.7809 61.6471L67.3632 54.5406L67.119 55.7892C66.496 55.1011 65.8045 54.609 65.0444 54.3127C64.2842 54.0164 63.5226 53.9408 62.7595 54.0859C62.008 54.22 61.3054 54.5934 60.6517 55.2062C59.9863 55.8298 59.5503 56.5345 59.3437 57.3202C59.1372 58.1059 59.1564 58.9102 59.4014 59.7332C59.6472 60.5335 60.1038 61.2897 60.7712 62.0018C61.4387 62.7139 62.1813 63.2021 62.999 63.4663C63.8285 63.7195 64.6594 63.7521 65.4919 63.564C66.3243 63.3759 67.0907 62.9536 67.7912 62.2971C68.2114 61.9032 68.566 61.4392 68.855 60.9053C69.1447 60.3487 69.314 59.8391 69.3629 59.3766C69.3929 59.1512 69.4896 58.9618 69.653 58.8087C69.8055 58.6438 69.9839 58.5534 70.1882 58.5373C70.4712 58.5352 70.6893 58.6158 70.8425 58.7793C71.0074 58.9318 71.0745 59.132 71.0438 59.3801C70.9649 60.068 70.7317 60.8019 70.3443 61.5817C69.9458 62.3499 69.4723 62.9911 68.9236 63.5053Z" fill="black"/>
<path d="M85.5761 49.6417C85.056 50.0146 84.4853 50.2072 83.8641 50.2195C83.2559 50.2225 82.653 50.0543 82.0553 49.715C81.4707 49.3664 80.9406 48.8605 80.4651 48.1974L72.4936 37.08C72.3351 36.8589 72.2742 36.6368 72.311 36.4135C72.3515 36.1679 72.4822 35.9659 72.7033 35.8074C72.9243 35.6489 73.1512 35.5945 73.3837 35.6443C73.62 35.6718 73.8174 35.7961 73.9759 36.0171L81.9474 47.1345C82.3483 47.6937 82.7852 48.0695 83.2579 48.2621C83.7437 48.4453 84.1622 48.4111 84.5132 48.1594L85.0008 47.8097C85.1959 47.6699 85.4032 47.6295 85.6228 47.6886C85.833 47.7348 86.0174 47.8683 86.1759 48.0894C86.3344 48.3104 86.3804 48.5531 86.3139 48.8173C86.2511 49.0592 86.0897 49.2734 85.8297 49.4599L85.5761 49.6417Z" fill="black"/>
<path d="M98.1552 41.6088C97.601 41.9289 97.0142 42.0646 96.3948 42.016C95.7892 41.9593 95.2057 41.7328 94.6442 41.3365C94.0965 40.9323 93.6186 40.3768 93.2104 39.6703L86.3675 27.8247C86.2315 27.5892 86.1927 27.3621 86.2512 27.1435C86.3156 26.9031 86.4655 26.7149 86.701 26.5788C86.9365 26.4427 87.1676 26.4109 87.3942 26.4833C87.6266 26.5338 87.8109 26.6768 87.9469 26.9123L94.7898 38.7579C95.134 39.3536 95.5318 39.7705 95.9835 40.0085C96.4489 40.2385 96.8687 40.2455 97.2428 40.0294L97.7623 39.7292C97.9701 39.6092 98.1804 39.5894 98.3931 39.6697C98.5979 39.7362 98.7682 39.8873 98.9043 40.1228C99.0404 40.3583 99.0624 40.6043 98.9703 40.8607C98.8841 41.0953 98.7024 41.2926 98.4253 41.4527L98.1552 41.6088Z" fill="black"/>
<path d="M114.464 33.6545C113.278 34.1348 112.109 34.2972 110.959 34.1416C109.808 33.9859 108.777 33.5491 107.865 32.8309C106.953 32.1127 106.256 31.1604 105.776 29.974C105.29 28.7727 105.124 27.5968 105.28 26.4463C105.436 25.2958 105.872 24.2645 106.591 23.3523C107.309 22.4401 108.261 21.7439 109.448 21.2635C110.634 20.7831 111.795 20.6238 112.931 20.7854C114.081 20.941 115.113 21.3779 116.025 22.0961C116.937 22.8143 117.644 23.771 118.145 24.9662C118.625 26.1527 118.78 27.3242 118.61 28.4807C118.454 29.6311 118.017 30.6625 117.299 31.5747C116.596 32.4808 115.651 33.1741 114.464 33.6545ZM113.834 32.0972C114.694 31.749 115.384 31.2365 115.904 30.5599C116.424 29.8833 116.736 29.1184 116.839 28.2652C116.943 27.4121 116.814 26.5406 116.454 25.6508C116.094 24.7609 115.58 24.0455 114.912 23.5046C114.238 22.9489 113.479 22.6089 112.635 22.4847C111.79 22.3604 110.938 22.4725 110.078 22.8207C109.218 23.169 108.528 23.6814 108.008 24.358C107.488 25.0347 107.171 25.81 107.059 26.684C106.956 27.5371 107.084 28.4086 107.445 29.2985C107.805 30.1883 108.319 30.9037 108.987 31.4446C109.669 31.9795 110.433 32.3091 111.277 32.4333C112.121 32.5575 112.974 32.4455 113.834 32.0972Z" fill="black"/>
<path d="M133.953 22.4265C133.704 22.4888 133.466 22.4579 133.237 22.3338C133.019 22.1904 132.88 21.9945 132.817 21.7461L129.748 9.50082C129.682 9.23698 129.713 8.99831 129.841 8.7848C129.981 8.55189 130.175 8.40431 130.423 8.34208C130.687 8.27596 130.927 8.31463 131.145 8.45809C131.358 8.58602 131.498 8.78191 131.564 9.04575L134.633 21.2911C134.695 21.5394 134.657 21.78 134.517 22.0129C134.374 22.2303 134.186 22.3682 133.953 22.4265ZM134.985 26.5471C134.613 26.6405 134.262 26.5883 133.932 26.3905C133.602 26.1928 133.39 25.9077 133.297 25.5352C133.2 25.1472 133.25 24.7883 133.447 24.4583C133.645 24.1283 133.93 23.9167 134.303 23.8233C134.675 23.73 135.028 23.7899 135.362 24.0032C135.692 24.2009 135.904 24.486 135.997 24.8585C136.091 25.231 136.038 25.5822 135.841 25.9121C135.643 26.2421 135.358 26.4538 134.985 26.5471Z" fill="black"/>
<path d="M161.459 2.14353L162.766 18.074L164.751 17.9112L163.445 1.98067L161.459 2.14353ZM163.362 8.60959L163.498 10.26L167.325 9.94609L167.189 8.29563L163.362 8.60959ZM151.581 22.6278L151.714 24.2543L166.162 23.0691L166.028 21.4426L151.581 22.6278ZM151.151 17.3893L151.634 23.2736L153.619 23.1107L153.137 17.2265L151.151 17.3893ZM152.83 4.39256C149.601 4.65746 147.368 7.08017 147.623 10.1897C147.88 13.3232 150.476 15.3256 153.705 15.0607C156.935 14.7958 159.17 12.397 158.913 9.26356C158.658 6.15401 156.059 4.12766 152.83 4.39256ZM152.973 6.1387C155.078 5.96602 156.803 7.31757 156.975 9.4225C157.15 11.5513 155.667 13.1419 153.562 13.3146C151.457 13.4873 149.735 12.1596 149.56 10.0308C149.388 7.92586 150.869 6.31137 152.973 6.1387Z" fill="black"/>
<path d="M187.142 3.18956L185.768 12.4482L187.714 12.7371L189.088 3.47846L187.142 3.18956ZM185.838 11.9734L185.595 13.6114L187.209 13.851C191.079 14.4253 193.759 14.6774 196.94 14.4945L196.915 12.8651C193.856 13.042 191.227 12.7731 187.452 12.2129L185.838 11.9734ZM201.718 4.04264L199.767 17.1946L201.737 17.487L203.689 4.33506L201.718 4.04264ZM195.339 5.66771L195.11 7.21081L201.662 8.18321L201.891 6.64011L195.339 5.66771ZM194.779 9.44237L194.546 11.0092L201.098 11.9816L201.331 10.4148L194.779 9.44237ZM194.658 16.6306C190.219 15.9717 187.267 17.0622 186.886 19.6261C186.506 22.19 189.017 24.0671 193.457 24.7259C197.872 25.3812 200.821 24.3145 201.201 21.7506C201.582 19.1866 199.074 17.2859 194.658 16.6306ZM194.425 18.1974C197.654 18.6765 199.487 19.8948 199.255 21.4617C199.022 23.0285 196.918 23.6382 193.689 23.1591C190.461 22.6799 188.624 21.4854 188.857 19.9185C189.089 18.3517 191.197 17.7182 194.425 18.1974Z" fill="black"/>
<path d="M238.43 14.4426L230.452 34.6189L232.305 35.3513L240.282 15.1751L238.43 14.4426ZM236.562 23.2789L235.944 24.8412L239.694 26.3237L240.311 24.7614L236.562 23.2789ZM223.388 12.212L222.788 13.7296L234.684 18.433L235.284 16.9153L223.388 12.212ZM228.152 17.7861C225.318 16.6654 222.483 17.7642 221.407 20.4871C220.33 23.21 221.647 25.9501 224.481 27.0708C227.338 28.2003 230.151 27.0927 231.227 24.3698C232.304 21.6469 231.009 18.9156 228.152 17.7861ZM227.544 19.3261C229.374 20.0497 230.187 21.8425 229.464 23.6727C228.749 25.4805 226.921 26.2544 225.09 25.5308C223.26 24.8072 222.455 22.992 223.17 21.1842C223.894 19.3541 225.713 18.6025 227.544 19.3261ZM229.628 11.2467L228.181 14.907L230.033 15.6394L231.481 11.9791L229.628 11.2467Z" fill="black"/>
<path d="M263.424 36.2096L262.481 37.571L265.895 39.9349L266.838 38.5735L263.424 36.2096ZM263.342 29.2045L260.992 32.5982C258.874 35.6564 255.2 37.8416 251.756 37.5876L251.921 39.5412C255.632 39.7467 259.692 37.2154 262.274 33.4863L264.624 30.0927L263.342 29.2045ZM263.657 29.4231L261.348 32.7576C258.943 36.2302 257.924 40.7792 259.396 44.1339L261.231 43.5073C259.867 40.4607 260.63 36.493 262.611 33.6321L264.92 30.2976L263.657 29.4231ZM274.388 34.3731L262.036 52.2095L263.614 53.3026L275.967 35.4662L274.388 34.3731ZM270.518 32.2475L259.04 48.8211L260.579 49.8869L272.057 33.3132L270.518 32.2475Z" fill="black"/>
<path d="M287.246 59.7232L282.425 64.0891L283.746 65.5478L288.567 61.1819L287.246 59.7232ZM292.627 65.6647L287.806 70.0307L289.143 71.5072L293.964 67.1412L292.627 65.6647ZM279.488 60.2735L278.26 61.3852L291.455 75.9544L292.682 74.8428L279.488 60.2735ZM297.855 56.8502C294.762 53.4347 290.936 52.4637 288.41 54.7514C285.901 57.0229 286.49 60.9261 289.583 64.3416C292.66 67.7393 296.486 68.7104 298.994 66.4388C301.52 64.1511 300.932 60.248 297.855 56.8502ZM296.681 57.9135C299.017 60.493 299.502 63.3885 297.705 65.0157C295.926 66.6267 293.093 65.8577 290.757 63.2783C288.421 60.6989 287.919 57.7855 289.698 56.1745C291.495 54.5473 294.345 55.3341 296.681 57.9135Z" fill="black"/>
<path d="M304.037 87.5428C303.899 87.3276 303.851 87.0916 303.895 86.8349C303.962 86.5829 304.102 86.3877 304.317 86.249L314.93 79.4131C315.159 79.2659 315.395 79.2185 315.638 79.2712C315.904 79.3287 316.106 79.465 316.244 79.6802C316.392 79.9089 316.432 80.1492 316.366 80.4011C316.314 80.6444 316.173 80.8397 315.944 80.9869L305.331 87.8228C305.116 87.9615 304.876 88.002 304.61 87.9446C304.358 87.8785 304.167 87.7445 304.037 87.5428ZM300.466 89.8431C300.258 89.5202 300.195 89.1708 300.276 88.7949C300.358 88.4189 300.56 88.127 300.883 87.919C301.219 87.7024 301.575 87.6348 301.951 87.7162C302.327 87.7976 302.619 87.9997 302.827 88.3225C303.035 88.6454 303.091 88.9991 302.996 89.3837C302.915 89.7597 302.713 90.0516 302.39 90.2596C302.067 90.4675 301.718 90.5308 301.342 90.4494C300.966 90.368 300.674 90.1659 300.466 89.8431Z" fill="black"/>
<path d="M308.733 103.336C308.623 103.087 308.612 102.847 308.702 102.615C308.792 102.382 308.961 102.211 309.21 102.101L324.638 95.2722C324.887 95.1621 325.127 95.1519 325.359 95.2416C325.592 95.3314 325.763 95.5006 325.873 95.7493C325.983 95.998 325.993 96.2385 325.903 96.4706C325.814 96.7028 325.644 96.8739 325.396 96.984L318.548 100.015L323.289 110.725L330.136 107.694C330.385 107.584 330.625 107.574 330.857 107.663C331.09 107.753 331.261 107.922 331.371 108.171C331.481 108.42 331.491 108.66 331.401 108.892C331.312 109.124 331.143 109.296 330.894 109.406L315.466 116.235C315.217 116.345 314.976 116.355 314.744 116.265C314.512 116.175 314.341 116.006 314.231 115.757C314.121 115.509 314.111 115.268 314.2 115.036C314.29 114.804 314.459 114.633 314.708 114.523L321.753 111.405L317.012 100.695L309.967 103.813C309.719 103.923 309.478 103.933 309.246 103.844C309.014 103.754 308.843 103.585 308.733 103.336Z" fill="black"/>
<path d="M321.291 138.131C320.997 136.869 321.009 135.684 321.326 134.575C321.663 133.478 322.256 132.535 323.108 131.746C323.963 130.972 325.021 130.439 326.284 130.145C327.562 129.848 328.744 129.844 329.829 130.134C330.934 130.436 331.874 130.981 332.649 131.77C333.424 132.559 333.951 133.553 334.23 134.753C334.505 135.938 334.472 137.03 334.129 138.029C333.806 139.041 333.225 139.899 332.387 140.603C331.548 141.307 330.521 141.8 329.306 142.083C329.056 142.141 328.836 142.11 328.644 141.991C328.467 141.867 328.35 141.681 328.292 141.432L325.982 131.497L327.478 131.149L329.832 141.271L328.873 140.434C329.781 140.24 330.553 139.887 331.19 139.378C331.827 138.868 332.274 138.247 332.531 137.514C332.791 136.796 332.82 136.001 332.617 135.128C332.41 134.24 332.019 133.51 331.442 132.938C330.866 132.365 330.16 131.979 329.325 131.779C328.509 131.591 327.626 131.607 326.675 131.828C325.725 132.049 324.93 132.448 324.292 133.023C323.657 133.614 323.213 134.317 322.959 135.132C322.705 135.946 322.686 136.821 322.904 137.756C323.034 138.317 323.258 138.857 323.576 139.374C323.912 139.904 324.268 140.306 324.644 140.58C324.824 140.718 324.94 140.897 324.991 141.115C325.057 141.33 325.046 141.529 324.957 141.714C324.817 141.96 324.638 142.109 324.42 142.159C324.206 142.226 323.999 142.183 323.799 142.033C323.243 141.62 322.725 141.05 322.244 140.325C321.779 139.595 321.461 138.864 321.291 138.131Z" fill="black"/>
<path d="M324.949 159.489C324.887 158.852 325.006 158.261 325.307 157.718C325.609 157.19 326.056 156.752 326.649 156.405C327.244 156.073 327.947 155.868 328.759 155.788L342.374 154.457C342.645 154.43 342.868 154.489 343.043 154.633C343.235 154.791 343.344 155.005 343.371 155.276C343.397 155.547 343.331 155.77 343.171 155.946C343.029 156.137 342.823 156.246 342.552 156.272L328.937 157.604C328.252 157.671 327.708 157.861 327.305 158.173C326.903 158.502 326.723 158.881 326.765 159.311L326.823 159.908C326.846 160.147 326.778 160.347 326.616 160.507C326.471 160.666 326.263 160.759 325.993 160.785C325.722 160.812 325.489 160.73 325.293 160.54C325.115 160.365 325.011 160.118 324.98 159.799L324.949 159.489Z" fill="black"/>
<path d="M325.602 174.399C325.603 173.759 325.779 173.184 326.132 172.672C326.484 172.176 326.972 171.784 327.596 171.497C328.221 171.225 328.941 171.09 329.757 171.09L343.437 171.101C343.709 171.101 343.925 171.181 344.085 171.341C344.26 171.517 344.348 171.741 344.348 172.013C344.348 172.285 344.26 172.501 344.084 172.661C343.923 172.837 343.707 172.925 343.435 172.925L329.755 172.914C329.067 172.914 328.507 173.05 328.075 173.321C327.643 173.609 327.427 173.969 327.426 174.401L327.426 175.001C327.426 175.241 327.338 175.433 327.161 175.577C327.001 175.72 326.785 175.792 326.513 175.792C326.241 175.792 326.017 175.688 325.842 175.48C325.682 175.287 325.602 175.031 325.602 174.711L325.602 174.399Z" fill="black"/>
<path d="M324.319 192.5C324.497 191.233 324.942 190.14 325.653 189.222C326.364 188.304 327.258 187.63 328.337 187.201C329.415 186.771 330.588 186.645 331.856 186.823C333.139 187.004 334.24 187.45 335.157 188.161C336.075 188.872 336.749 189.766 337.179 190.845C337.609 191.923 337.735 193.096 337.556 194.364C337.378 195.631 336.934 196.716 336.225 197.618C335.514 198.536 334.62 199.21 333.541 199.64C332.463 200.07 331.281 200.202 329.995 200.037C328.728 199.859 327.636 199.406 326.721 198.679C325.803 197.968 325.129 197.074 324.699 195.995C324.267 194.933 324.14 193.768 324.319 192.5ZM325.982 192.734C325.853 193.653 325.951 194.507 326.276 195.296C326.601 196.085 327.107 196.738 327.794 197.255C328.48 197.772 329.299 198.097 330.25 198.231C331.2 198.365 332.077 198.278 332.879 197.971C333.698 197.666 334.372 197.18 334.903 196.511C335.433 195.842 335.763 195.049 335.892 194.13C336.022 193.211 335.924 192.357 335.599 191.568C335.274 190.779 334.761 190.117 334.061 189.582C333.374 189.065 332.555 188.74 331.605 188.606C330.654 188.472 329.777 188.559 328.975 188.866C328.17 189.189 327.502 189.684 326.972 190.353C326.441 191.022 326.112 191.815 325.982 192.734Z" fill="black"/>
<path d="M324.276 214.991C324.346 214.745 324.493 214.554 324.715 214.418C324.948 214.302 325.187 214.279 325.433 214.349L337.569 217.826C337.831 217.901 338.022 218.047 338.142 218.265C338.274 218.502 338.305 218.744 338.234 218.99C338.159 219.252 338.005 219.441 337.772 219.557C337.555 219.678 337.315 219.701 337.054 219.626L324.918 216.149C324.672 216.078 324.483 215.924 324.351 215.687C324.235 215.454 324.21 215.222 324.276 214.991ZM320.192 213.821C320.298 213.452 320.519 213.174 320.855 212.988C321.192 212.801 321.544 212.761 321.914 212.866C322.298 212.977 322.584 213.2 322.77 213.536C322.957 213.873 322.997 214.225 322.891 214.595C322.786 214.964 322.557 215.239 322.205 215.422C321.869 215.608 321.516 215.649 321.147 215.543C320.778 215.437 320.5 215.216 320.313 214.88C320.127 214.543 320.086 214.19 320.192 213.821Z" fill="black"/>
<path d="M328.055 248.958L313.612 242.11L312.759 243.91L327.202 250.758L328.055 248.958ZM321.506 247.366L320.009 246.657L318.364 250.127L319.86 250.836L321.506 247.366ZM315.273 230.148L313.798 229.449L307.588 242.547L309.063 243.247L315.273 230.148ZM320.022 232.4L314.687 229.871L313.834 231.67L319.169 234.2L320.022 232.4ZM330.43 240.362C331.818 237.435 330.84 234.288 328.021 232.952C325.18 231.605 322.146 232.849 320.758 235.777C319.37 238.704 320.327 241.841 323.168 243.188C325.987 244.524 329.042 243.29 330.43 240.362ZM328.847 239.612C327.943 241.52 325.909 242.336 324.001 241.431C322.071 240.516 321.437 238.436 322.342 236.527C323.246 234.619 325.258 233.793 327.188 234.708C329.096 235.613 329.752 237.704 328.847 239.612Z" fill="black"/>
<path d="M314.287 270.663L306.961 264.837L305.736 266.377L313.061 272.203L314.287 270.663ZM307.337 265.136L306.041 264.105L305.025 265.382C302.59 268.444 301.029 270.637 299.594 273.482L301.017 274.277C302.396 271.54 303.945 269.399 306.321 266.413L307.337 265.136ZM306.247 282.853L295.842 274.576L294.602 276.135L305.007 284.412L306.247 282.853ZM308.036 276.517L306.815 275.546L302.692 280.73L303.913 281.701L308.036 276.517ZM305.05 274.141L303.81 273.155L299.687 278.34L300.926 279.326L305.05 274.141ZM298.888 270.437C301.682 266.925 302.217 263.823 300.188 262.21C298.16 260.596 295.277 261.83 292.483 265.343C289.704 268.836 289.151 271.923 291.18 273.536C293.208 275.15 296.11 273.931 298.888 270.437ZM297.649 269.451C295.617 272.005 293.644 272.982 292.405 271.996C291.165 271.01 291.691 268.883 293.723 266.329C295.755 263.774 297.708 262.783 298.948 263.769C300.188 264.755 299.68 266.896 297.649 269.451Z" fill="black"/>
<path d="M278.859 309.418L265.391 292.408L263.829 293.645L277.297 310.655L278.859 309.418ZM272.147 303.376L271.104 302.059L267.943 304.562L268.985 305.879L272.147 303.376ZM288.323 297.516L287.31 296.237L277.281 304.178L278.294 305.457L288.323 297.516ZM281.113 298.848C283.502 296.956 283.971 293.952 282.153 291.657C280.336 289.361 277.305 289.129 274.915 291.021C272.506 292.928 272.057 295.917 273.874 298.212C275.692 300.508 278.704 300.755 281.113 298.848ZM280.085 297.55C278.542 298.772 276.582 298.578 275.361 297.035C274.154 295.511 274.4 293.541 275.943 292.319C277.486 291.097 279.46 291.31 280.667 292.834C281.888 294.377 281.628 296.328 280.085 297.55ZM286.034 303.401L283.59 300.315L282.029 301.552L284.472 304.637L286.034 303.401Z" fill="black"/>
<path d="M247.501 320.15L246.795 318.652L243.039 320.423L243.745 321.921L247.501 320.15ZM253.605 323.587L251.845 319.853C250.259 316.489 250.207 312.214 252.152 309.361L250.379 308.525C248.342 311.634 248.5 316.416 250.434 320.519L252.194 324.252L253.605 323.587ZM253.258 323.751L251.528 320.082C249.727 316.262 246.3 313.101 242.66 312.695L242.283 314.597C245.603 314.942 248.655 317.589 250.139 320.737L251.869 324.406L253.258 323.751ZM243.599 330.56L234.348 310.935L232.611 311.754L241.862 331.378L243.599 330.56ZM247.377 328.274L238.781 310.039L237.088 310.837L245.684 329.073L247.377 328.274Z" fill="black"/>
<path d="M215.218 328.992L213.854 322.633L211.93 323.046L213.294 329.405L215.218 328.992ZM207.38 330.674L206.016 324.314L204.068 324.732L205.433 331.091L207.38 330.674ZM218.627 322.001L218.28 320.382L199.061 324.505L199.409 326.125L218.627 322.001ZM212.391 339.613C216.897 338.647 219.653 335.822 218.939 332.489C218.229 329.181 214.556 327.735 210.05 328.702C205.568 329.663 202.811 332.488 203.521 335.797C204.236 339.129 207.909 340.575 212.391 339.613ZM212.059 338.065C208.656 338.795 205.907 337.764 205.399 335.394C204.895 333.048 206.98 330.98 210.382 330.25C213.785 329.52 216.558 330.546 217.061 332.892C217.57 335.262 215.462 337.335 212.059 338.065Z" fill="black"/>
<path d="M182.729 329.593C182.985 329.58 183.213 329.658 183.413 329.824C183.598 330.008 183.696 330.227 183.708 330.483L184.31 343.093C184.323 343.364 184.245 343.592 184.078 343.776C183.895 343.977 183.676 344.084 183.42 344.096C183.149 344.109 182.92 344.024 182.735 343.84C182.551 343.673 182.453 343.453 182.44 343.182L181.838 330.572C181.826 330.316 181.912 330.088 182.094 329.887C182.278 329.702 182.489 329.604 182.729 329.593ZM182.527 325.349C182.91 325.331 183.244 325.451 183.529 325.71C183.814 325.969 183.965 326.29 183.983 326.674C184.002 327.073 183.882 327.415 183.624 327.7C183.365 327.984 183.044 328.136 182.66 328.154C182.277 328.173 181.942 328.044 181.657 327.77C181.372 327.511 181.221 327.19 181.202 326.806C181.184 326.423 181.304 326.088 181.563 325.804C181.822 325.519 182.143 325.368 182.527 325.349Z" fill="black"/>
</svg>
