<svg width="1438" height="1438" viewBox="0 0 1438 1438" fill="none" xmlns="http://www.w3.org/2000/svg">
<circle cx="869" cy="173" r="125" stroke="#9B1212" stroke-width="50"/>
<path d="M336 390.5C336 473.343 403.157 540.5 486 540.5C568.843 540.5 636 473.343 636 390.5V23" stroke="#9B1212" stroke-width="50"/>
<path d="M837 1117H933.623H1039V1344" stroke="#9B1212" stroke-width="50"/>
<path d="M575 1117H670.992H767.5V1268M767.5 1419V1268M767.5 1268H575" stroke="#9B1212" stroke-width="50"/>
<path d="M532 736L532 1037L283 1037M95 1037L283 1037M283 1037L283 736" stroke="#9B1212" stroke-width="50"/>
<line x1="1110" y1="129" x2="1110" y2="604" stroke="#9B1212" stroke-width="50"/>
<path d="M1023.43 558.765C920.227 514.273 797 601.617 797 725.906C797 850.195 881.4 936.706 986.974 921.204C1054.15 911.341 1087.93 879.977 1127.83 806.056C1167.74 732.135 1164.27 612.752 1277.29 591.104C1353.01 576.601 1412 643.046 1412 725.906C1412 808.765 1351.69 858.308 1277.29 858.308" stroke="#9B1212" stroke-width="50"/>
<circle cx="719" cy="719" r="694" stroke="#9B1212" stroke-width="50"/>
</svg>
