<svg width="100" height="58" viewBox="0 0 100 58" fill="none" xmlns="http://www.w3.org/2000/svg">
<path d="M20.1345 0.00125158C15.4549 0.0885871 11.7058 3.90435 11.6994 8.58553V19.4659H4.37914C2.08936 19.4659 0.128287 21.2254 0.00601711 23.512C-0.0543235 24.6505 0.341068 25.7668 1.10644 26.6116C1.87182 27.4563 2.94208 27.9629 4.08061 28.0153V38.0668C4.08061 48.8821 12.8491 57.6506 23.6644 57.6506H76.3356C87.1509 57.6506 95.9194 48.8821 95.9194 38.0668V28.0153C97.0579 27.9629 98.1282 27.4563 98.8936 26.6116C99.6589 25.7668 100.054 24.6505 99.994 23.512C99.8717 21.2254 97.9106 19.4659 95.6209 19.4659H85.6694C85.2835 18.2877 84.1863 17.4906 82.9477 17.489H62.986C61.7474 17.4906 60.6502 18.2877 60.2643 19.4659H14.1385V8.71574C14.1385 5.37159 16.7554 2.54192 20.0979 2.44188C21.7589 2.39424 23.369 3.01988 24.5616 4.17589C25.7541 5.33348 26.4274 6.92298 26.429 8.58553V11.8169C26.4194 12.4886 26.9419 13.0492 27.612 13.0873C27.9422 13.0968 28.2614 12.9729 28.498 12.7427C28.7346 12.514 28.8696 12.198 28.8696 11.8678V8.73797C28.8696 3.93293 24.9379 -0.0813201 20.1345 0.00125158ZM62.986 19.928H82.9477C83.1827 19.928 83.3717 20.1186 83.3733 20.3536V31.8358H62.5604V20.3536C62.562 20.1186 62.7526 19.928 62.986 19.928ZM85.8123 21.9034H95.6558C96.6403 21.8907 97.4692 22.6386 97.5565 23.6199C97.5915 24.1281 97.4136 24.6283 97.0659 25.0014C96.7165 25.3746 96.2306 25.5858 95.7193 25.5858L95.7209 25.5874H85.8123V21.9034ZM4.28069 21.905H60.123V25.5874H30.0446C29.3714 25.5874 28.8251 26.1336 28.8251 26.8069C28.8251 27.4802 29.3714 28.0264 30.0446 28.0264H60.123V39.1783C60.123 39.8516 60.6676 40.3979 61.3425 40.3979H84.5928C85.2661 40.3979 85.8123 39.8516 85.8123 39.1783V28.0264H93.4803V38.0668C93.4803 47.5356 85.8044 55.2115 76.3372 55.21H23.6644C14.1956 55.2115 6.51965 47.5356 6.51965 38.0668V28.0264H19.4755C20.1487 28.0264 20.695 27.4802 20.695 26.8069C20.695 26.1336 20.1487 25.5874 19.4755 25.5874H4.34579C3.3597 25.6001 2.5308 24.8522 2.44347 23.8724C2.40854 23.3627 2.58638 22.8625 2.93414 22.4893C3.28348 22.1178 3.76938 21.905 4.28069 21.905ZM13.4557 33.8144C12.7824 33.8144 12.2362 34.3606 12.2362 35.0339C12.2362 35.7072 12.7824 36.2534 13.4557 36.2534H14.4132C15.0865 36.2534 15.6327 35.7072 15.6327 35.0339C15.6327 34.3606 15.0865 33.8144 14.4132 33.8144H13.4557ZM18.9753 33.8144C18.3004 33.8144 17.7542 34.3606 17.7542 35.0339C17.7542 35.7072 18.3004 36.2534 18.9753 36.2534H39.7309C40.4058 36.2534 40.9505 35.7072 40.9505 35.0339C40.9505 34.3606 40.4058 33.8144 39.7309 33.8144H18.9753ZM62.5604 34.2749H83.3717V37.9572H62.5604V34.2749Z" fill="white"/>
</svg>
