<svg width="79" height="80" viewBox="0 0 79 80" fill="none" xmlns="http://www.w3.org/2000/svg">
<path d="M71.2304 1.85203C70.7547 1.3811 69.9872 1.38427 69.5147 1.85679L64.0315 7.33995L57.1292 0.361527C56.9009 0.130023 56.5917 0 56.2666 0H56.2635C55.94 0 55.6308 0.128437 55.4025 0.35677L33.2843 22.4749C32.9688 22.781 32.8435 23.2329 32.9561 23.6562C33.0671 24.0812 33.3985 24.4126 33.8234 24.5252C34.2484 24.6362 34.7003 24.5109 35.0063 24.1969L56.2587 2.94454L60.7667 7.50168L4.16078 64.1076L4.15919 64.1108C4.10845 64.1631 4.06406 64.217 4.02442 64.2757C4.01173 64.2931 4.00063 64.3106 3.98953 64.328C3.95782 64.3787 3.92928 64.4342 3.90391 64.4897C3.90073 64.4993 3.89598 64.5072 3.89122 64.5167C3.87061 64.569 3.85317 64.6229 3.83889 64.6784L0.436102 78.491C0.333035 78.9048 0.45513 79.3409 0.756402 79.6437C1.05767 79.945 1.49531 80.0671 1.90917 79.964L15.7201 76.5612C15.7756 76.5486 15.8295 76.5311 15.8834 76.5089C15.8914 76.5058 15.8993 76.501 15.9072 76.4978C15.9643 76.4725 16.0198 76.4439 16.0721 76.4106C16.0896 76.3995 16.1054 76.39 16.1213 76.3773C16.1815 76.3377 16.2386 76.2917 16.291 76.241L48.2163 44.314L73.7388 18.7915C74.2145 18.3158 74.2145 17.5452 73.7388 17.0695L73.0523 16.3845L78.6353 10.8918C78.8684 10.6635 79 10.3511 79 10.0244C79 9.69939 78.87 9.38701 78.6369 9.1571L71.2304 1.85203ZM15.43 73.6563L6.74221 64.9702L36.9471 34.7653L45.6349 43.453L15.43 73.6563ZM5.68776 67.3582L13.042 74.714L3.28233 77.1178L5.68776 67.3582ZM47.3569 41.7294L38.6692 33.0432L62.4697 9.24431L71.1558 17.9321L47.3569 41.7294ZM71.3303 14.6625L66.0374 9.36957V9.36799L65.744 9.07147L70.382 4.43505L76.0475 10.0229L71.3303 14.6625Z" fill="white"/>
</svg>
