<svg width="110" height="110" viewBox="0 0 110 110" fill="none" xmlns="http://www.w3.org/2000/svg">
<path d="M78.6255 0.00218449C77.9571 -0.0261076 77.3046 0.221448 76.8201 0.684731C76.3374 1.14978 76.0633 1.78989 76.0633 2.46183C76.0651 3.81985 77.1649 4.9197 78.523 4.92147C79.8615 4.92147 80.9543 3.85167 80.9826 2.51311C81.0109 1.17454 79.9641 0.0587686 78.6273 0.00218449H78.6255ZM78.523 1.35844C78.9703 1.35844 79.3717 1.62721 79.5415 2.03921C79.713 2.45122 79.6193 2.92511 79.3028 3.24163C78.988 3.55638 78.5141 3.65009 78.1021 3.48034C77.6901 3.30882 77.4213 2.90743 77.4213 2.46006C77.4213 1.85178 77.9147 1.35844 78.523 1.35844ZM89.5303 3.66954C87.4898 3.69784 85.5518 4.38038 83.9444 5.72426C80.514 8.58706 79.7731 13.4692 82.0559 18.1604C82.5546 19.1913 83.5024 19.9322 84.6234 20.1674C84.8851 20.2239 85.1521 20.2522 85.4209 20.2522C86.2997 20.2522 87.1503 19.9428 87.8222 19.3769L89.3588 18.095L93.3321 22.8533C94.6742 24.4342 97.0384 24.6375 98.6298 23.3078C100.221 21.9798 100.444 19.6157 99.1267 18.0136L95.1534 13.2553L96.6882 11.9733C97.5794 11.2324 98.0781 10.1219 98.0374 8.96547C98.0038 7.81964 97.4433 6.75515 96.5185 6.07968C94.2816 4.44227 91.8415 3.63595 89.5303 3.66954ZM89.693 5.03464C91.4843 5.03994 93.371 5.627 95.1481 6.78521L94.0394 7.71001C92.3224 9.14937 92.0925 11.7045 93.5266 13.425L98.0852 18.8836C98.941 19.9092 98.8048 21.4334 97.7793 22.2875C96.7554 23.1433 95.2312 23.0072 94.3754 21.9816L89.8168 16.5248C89.1272 15.699 88.137 15.1809 87.0654 15.0836C85.9938 14.9881 84.9276 15.3206 84.1018 16.0102L82.9931 16.9368C81.3469 13.0289 82.0294 9.09101 84.8144 6.76576C86.206 5.60225 87.9018 5.02756 89.693 5.03464ZM64.6828 5.12305C63.6997 5.1425 61.6025 5.71895 60.0641 9.86374C59.9952 10.0476 60.0093 10.251 60.1031 10.4243C60.1968 10.5958 60.3612 10.7196 60.5522 10.762C65.4909 11.8619 69.7913 13.761 73.7027 15.6495C74.7247 16.1623 75.9696 15.8068 76.569 14.8325C77.2852 13.8423 77.1437 12.4719 76.2401 11.6497C75.5116 11.0113 74.6735 10.5145 73.7646 10.182C74.4807 9.38277 75.1721 8.21396 74.4949 7.11587C73.5718 5.61639 70.7143 5.59341 67.2556 7.00978C66.9285 6.01425 66.0674 5.29103 65.0312 5.14073C64.941 5.13012 64.8225 5.12128 64.6828 5.12305ZM64.6987 6.4793C64.7553 6.4793 64.8101 6.48107 64.8632 6.48814C65.5263 6.57125 66.0161 7.17599 66.108 8.02829C66.131 8.24402 66.2583 8.43676 66.4475 8.54462C66.6385 8.65249 66.8684 8.66133 67.0664 8.57115C70.6471 6.93021 72.9264 7.15654 73.3384 7.82671C73.5542 8.17683 73.2341 8.99553 72.0211 9.9663C71.816 10.1307 71.724 10.3978 71.7841 10.6524C71.8443 10.907 72.0458 11.1051 72.3022 11.1599C73.418 11.3968 74.4577 11.9096 75.3242 12.6523C75.722 13.0254 75.7733 13.6372 75.4427 14.0704C75.2128 14.4736 74.7088 14.6292 74.2915 14.4258C70.5128 12.601 66.3715 10.7655 61.6273 9.61795C62.637 7.31569 63.8517 6.48461 64.6987 6.4793ZM96.209 7.66757C96.5008 8.05658 96.6652 8.5234 96.6794 9.00791C96.7059 9.7488 96.3876 10.4579 95.8183 10.93L94.3135 12.1872C93.6486 11.0502 93.8997 9.60027 94.9094 8.75328L96.209 7.66757ZM105.096 8.40139C104.426 8.3731 103.775 8.62066 103.291 9.08394C102.806 9.54899 102.534 10.1891 102.534 10.8593C102.534 12.2191 103.636 13.3189 104.994 13.3207C106.332 13.3207 107.425 12.2509 107.453 10.9123C107.482 9.57375 106.435 8.45798 105.096 8.40139ZM104.994 9.75764C105.439 9.75764 105.842 10.0264 106.012 10.4384C106.184 10.8504 106.088 11.3243 105.774 11.6408C105.459 11.9556 104.983 12.0493 104.571 11.8795C104.159 11.708 103.89 11.3066 103.892 10.861C103.892 10.251 104.385 9.75764 104.994 9.75764ZM55.1608 12.2314C54.3527 12.1961 53.564 12.4949 52.9805 13.0537C52.397 13.6142 52.0663 14.3887 52.0663 15.1986C52.0681 16.8377 53.3961 18.1657 55.0352 18.1675C56.6514 18.1675 57.9705 16.8749 58.0041 15.2605C58.0395 13.6443 56.7752 12.2986 55.1608 12.2297V12.2314ZM55.037 13.5859C55.9264 13.5859 56.6479 14.3074 56.6479 15.1968C56.6479 16.088 55.9264 16.8094 55.0352 16.8094C54.1458 16.8094 53.4244 16.088 53.4244 15.1986C53.4261 14.3074 54.1458 13.5877 55.037 13.5859ZM66.0762 15.6353C65.0825 15.6618 64.0074 15.9306 62.9765 16.4593C60.1773 17.8934 58.7839 20.5758 59.8042 22.5633C60.3382 23.6066 61.5919 24.3104 62.8615 24.3104C62.9623 24.3104 63.0631 24.3068 63.1639 24.298C64.3309 24.2149 65.3212 23.4103 65.6412 22.2857C65.7668 22.139 65.9418 22.0435 66.1346 22.017C67.2556 22.4572 68.5323 22.1425 69.321 21.2318C70.2546 20.1921 70.4403 18.6803 69.786 17.446C69.1583 16.2242 67.7295 15.5929 66.0762 15.6353ZM86.7082 16.424C87.3501 16.4257 87.9707 16.6574 88.457 17.0765L86.9522 18.3354C86.3864 18.8111 85.6313 18.9968 84.9081 18.8394C84.4342 18.7386 84.0028 18.4946 83.6721 18.1374L84.9718 17.0517C85.4598 16.645 86.0734 16.4222 86.7082 16.424ZM66.2442 16.9986C67.3193 16.9986 68.2176 17.3629 68.5765 18.0649C68.9708 18.797 68.8665 19.6988 68.3148 20.3194C67.8993 20.8163 67.2114 20.9878 66.612 20.7473C66.1788 20.6041 65.7066 20.6483 65.307 20.8658C64.8597 21.0568 64.5113 21.4264 64.3433 21.8843C64.1913 22.4855 63.6625 22.917 63.0419 22.9453C62.2285 23.0196 61.3373 22.5793 61.0119 21.9445C60.363 20.6766 61.5459 18.7192 63.5954 17.667C64.4141 17.2409 65.3212 17.011 66.2442 16.9986ZM92.2446 24.4571C92.2322 24.4571 92.2199 24.4571 92.2075 24.4589L66.8012 25.8558C66.4475 25.8753 66.1682 26.1635 66.1593 26.5172L66.0585 31.0085C66.055 31.1889 66.1222 31.3639 66.2477 31.4948C66.3733 31.6239 66.5448 31.6999 66.7252 31.7035L92.043 32.1632H92.0554C92.4214 32.1632 92.7238 31.8714 92.7344 31.5036L92.9219 25.1556C92.9289 24.9735 92.86 24.7949 92.7309 24.6623C92.6036 24.5314 92.4285 24.4571 92.2446 24.4571ZM55.3907 25.6684C54.5118 25.6808 53.5976 25.8081 52.6693 26.0556C51.7145 26.3085 50.9293 26.9911 50.5456 27.9017C50.1513 28.8194 50.2044 29.868 50.6906 30.7398L51.4404 32.0995L47.0215 34.5362C45.7201 35.2541 45.0711 36.7624 45.4425 38.2018C45.8156 39.6411 47.1135 40.6437 48.6006 40.642C49.1487 40.642 49.688 40.5023 50.1672 40.237L54.5843 37.7986L55.3341 39.1566C55.8203 40.0355 56.9273 40.6526 57.921 40.8135C58.722 40.8135 59.7529 40.5359 60.3524 39.9807C63.5777 36.9923 64.483 32.9289 62.6599 29.624C61.2347 27.0441 58.5293 25.6242 55.3907 25.6684ZM91.5426 25.8541L91.3941 30.7928L67.4325 30.3578L67.5032 27.1767L91.5426 25.8541ZM55.5586 27.03C58.1332 27.0423 60.3223 28.2023 61.4717 30.2818C62.8827 32.8404 62.2745 35.9932 59.9421 38.4741L59.4364 37.5564C58.5028 35.8712 56.3809 35.2576 54.694 36.1877L49.5094 39.047C48.5935 39.5527 47.4388 39.2203 46.9331 38.3026C46.4256 37.3849 46.7598 36.232 47.6775 35.7245V35.7262L52.8603 32.8652C54.5472 31.9333 55.159 29.8114 54.2307 28.1227L53.7232 27.205C54.3509 27.0848 54.9645 27.0264 55.5586 27.0282V27.03ZM52.42 27.6542L53.0406 28.7788C53.5181 29.647 53.3342 30.7291 52.6003 31.3922L51.8789 30.0837C51.5977 29.5762 51.5659 28.9662 51.7958 28.4339C51.9284 28.121 52.1441 27.8522 52.42 27.6542ZM99.62 28.7858C98.4812 28.7858 97.4132 29.3446 96.7643 30.2782C96.1984 31.1111 96.156 32.1915 96.6511 33.0668C96.9906 33.6998 97.6838 34.0605 98.3981 33.9739C98.4247 33.9704 98.4512 33.965 98.4777 33.9597C99.6147 33.6874 101.424 33.3727 102.058 33.4788C102.087 33.5053 102.12 33.5407 102.147 33.5672C102.347 33.8165 102.631 33.9827 102.946 34.034C102.966 34.0358 102.987 34.0358 103.008 34.0358C103.508 34.011 103.942 33.6839 104.106 33.21C104.217 32.7609 103.945 32.3666 103.747 32.0783C103.712 32.027 103.657 31.9475 103.641 31.9156C102.568 29.4012 100.879 28.8866 99.9666 28.8035C99.8516 28.7911 99.7349 28.7858 99.62 28.7858ZM99.6483 30.1456C99.7137 30.1456 99.7809 30.1492 99.8463 30.1545C100.817 30.2429 101.662 30.9431 102.249 32.1384C101.088 31.9775 98.8031 32.4886 98.2142 32.6265C98.0622 32.6336 97.9207 32.554 97.8464 32.4214C97.5883 31.9864 97.6095 31.4418 97.8977 31.0262C98.3009 30.4639 98.9551 30.135 99.6483 30.1456ZM74.4542 33.6149C74.1341 33.6255 73.8654 33.8572 73.807 34.1719L72.663 40.4192C72.6294 40.6066 72.6736 40.7994 72.7885 40.9497C72.9034 41.1017 73.0767 41.199 73.2659 41.2167L98.5909 43.6657C98.6121 43.6675 98.6351 43.6692 98.6563 43.6692C98.9852 43.6692 99.2681 43.4323 99.3247 43.1069L100.101 38.6828C100.133 38.5042 100.09 38.322 99.9878 38.1735C99.8835 38.0267 99.7243 37.9259 99.5457 37.8959L74.5904 33.6255C74.5444 33.6167 74.5002 33.6132 74.4542 33.6149ZM75.0218 35.0755L98.6439 39.1195L98.094 42.2529L74.1324 39.9364L75.0218 35.0755ZM56.4357 37.1143C57.1907 37.1355 57.8804 37.5528 58.2464 38.2142L58.8688 39.3405C58.5541 39.4679 58.211 39.5068 57.875 39.4502V39.4519C57.3021 39.3618 56.8035 39.0099 56.5241 38.5006L55.8027 37.1939C56.0078 37.1355 56.2217 37.109 56.4357 37.1143ZM57.921 40.8135C57.7477 40.8135 58.0943 40.8418 57.921 40.8135V40.8135ZM107.538 41.2343C106.544 41.2326 105.646 41.832 105.266 42.7533C104.884 43.6728 105.095 44.7302 105.798 45.434C106.502 46.1377 107.561 46.3481 108.481 45.968C109.4 45.586 110 44.6895 110 43.694C109.998 42.336 108.898 41.2343 107.538 41.2343ZM107.492 42.5924C107.793 42.58 108.086 42.6896 108.302 42.8983C108.52 43.1069 108.642 43.3934 108.642 43.694C108.642 44.3023 108.148 44.7956 107.538 44.7974C106.939 44.7974 106.447 44.3182 106.433 43.717C106.421 43.1158 106.893 42.6154 107.492 42.5924ZM63.9437 43.473C62.499 43.5048 61.0756 43.8266 59.7565 44.4154C54.6993 46.5975 52.0946 51.8757 53.9513 56.1796C54.8602 58.2839 56.6797 59.8399 59.0757 60.5578C60.0199 60.839 60.9996 60.9787 61.9845 60.9769C63.5352 60.9698 65.0701 60.6462 66.4935 60.0274C68.8524 59.0442 70.7904 57.2618 71.968 54.9949C73.0891 52.7598 73.2058 50.3691 72.2969 48.2632C71.3898 46.1572 69.5685 44.6029 67.1743 43.885C66.124 43.5861 65.0347 43.4464 63.9437 43.473ZM76.1464 44.1201C74.5232 44.1661 73.2394 45.5082 73.2642 47.1315C73.2872 48.7547 74.6098 50.0579 76.2331 50.0579C77.8722 50.0562 79.2002 48.7282 79.202 47.089C79.202 46.2862 78.8784 45.5171 78.3019 44.9583C77.7255 44.3978 76.9492 44.0954 76.1464 44.1201ZM64.2655 44.8221C65.1178 44.8186 65.9666 44.9406 66.7835 45.1846C68.7887 45.7858 70.3041 47.0696 71.0503 48.7989C71.7983 50.5301 71.6922 52.514 70.755 54.3849C68.5712 58.4235 63.903 60.4376 59.4665 59.2564C57.4613 58.6552 55.9459 57.3714 55.1997 55.6403C53.6365 52.0242 55.9229 47.5488 60.294 45.6621C61.5477 45.1139 62.8987 44.8292 64.2655 44.8204V44.8221ZM76.1659 45.4782C76.6044 45.4587 77.0323 45.6214 77.3488 45.9255C77.6654 46.2297 77.8439 46.6487 77.8439 47.089C77.8439 47.9785 77.1225 48.6981 76.2331 48.6999C75.3578 48.6946 74.6469 47.9944 74.6293 47.1209C74.6098 46.2473 75.2924 45.5188 76.1659 45.4782ZM92.5081 46.0051C89.9689 46.0051 87.0619 46.1024 84.7065 47.2712C82.33 48.4506 80.8235 50.4876 79.4849 52.4734C78.088 54.5458 76.8325 56.6058 76.8325 59.0212C76.8325 61.4384 78.088 63.4984 79.4849 65.5708C80.8235 67.5566 82.33 69.5936 84.7065 70.773C87.0619 71.9418 89.9689 72.0391 92.5081 72.0391C95.0473 72.0391 97.9525 71.9418 100.308 70.773C102.686 69.5936 104.191 67.5566 105.53 65.5708C106.928 63.4984 108.182 61.4384 108.182 59.0212C108.182 56.6058 106.928 54.544 105.53 52.4716C104.191 50.4876 102.684 48.4506 100.308 47.2712C97.9525 46.1024 95.0473 46.0051 92.5081 46.0051ZM92.5081 47.3613C94.8935 47.3613 97.613 47.4498 99.7049 48.4877C101.784 49.5204 103.167 51.3983 104.403 53.232C105.68 55.1222 106.824 56.9895 106.824 59.0212C106.824 61.0547 105.68 62.922 104.403 64.8122C103.167 66.6459 101.784 68.5238 99.7049 69.5565C97.613 70.5944 94.8917 70.6829 92.5063 70.6829C90.1227 70.6829 87.4031 70.5944 85.3095 69.5565C83.23 68.5238 81.8473 66.6477 80.6113 64.8122C79.3364 62.922 78.1905 61.0547 78.1905 59.0212C78.1905 56.9895 79.3364 55.1222 80.6113 53.232C81.849 51.3983 83.23 49.5204 85.3095 48.4877C87.4031 47.4498 90.1227 47.3613 92.5081 47.3613ZM63.7598 48.1058C63.033 48.0828 62.2709 48.219 61.5353 48.5372C59.1836 49.5522 57.9829 52.0313 58.8582 54.0613C59.4806 55.5024 60.9854 56.3388 62.6458 56.3388C63.3584 56.3352 64.0622 56.1885 64.7147 55.9038C67.0664 54.8888 68.2671 52.4097 67.39 50.3798C66.7888 48.9828 65.3583 48.1553 63.7598 48.1058ZM92.5081 49.2375C90.6143 49.2375 88.4446 49.3117 86.6711 50.1906C84.8781 51.0818 83.7517 52.6042 82.7491 54.0896C81.7023 55.6421 80.7616 57.1893 80.7616 59.0212C80.7616 60.8549 81.7023 62.4021 82.7491 63.9564C83.7517 65.44 84.8781 66.9642 86.6711 67.8536C88.4446 68.7342 90.6143 68.8085 92.5081 68.8085C94.4019 68.8085 96.5698 68.7342 98.3433 67.8536C100.136 66.9642 101.263 65.44 102.265 63.9564C103.312 62.4021 104.253 60.8567 104.253 59.023C104.253 57.1893 103.312 55.6439 102.265 54.0896C101.263 52.6042 100.136 51.0818 98.3433 50.1906C96.5698 49.3117 94.4019 49.2375 92.5081 49.2375ZM63.6166 49.4585C64.7447 49.4585 65.742 49.9872 66.1434 50.9173C66.7234 52.2612 65.841 53.9375 64.1753 54.6572C62.5114 55.3751 60.6848 54.8676 60.1048 53.5237C59.5248 52.1798 60.409 50.5018 62.0729 49.7839C62.5609 49.5717 63.0843 49.4603 63.6166 49.4585ZM43.7096 50.4576C42.9015 50.424 42.1146 50.721 41.5293 51.2816C40.9458 51.8421 40.6169 52.6148 40.6169 53.4247C40.6169 55.0639 41.9466 56.3918 43.5858 56.3936C45.202 56.3936 46.5211 55.101 46.5529 53.4866C46.5865 51.8704 45.324 50.5248 43.7096 50.4576ZM92.5081 50.5973C94.248 50.5973 96.2303 50.6591 97.7403 51.4089C99.2363 52.1516 100.239 53.5166 101.139 54.8499C102.099 56.2733 102.895 57.5712 102.895 59.023C102.895 60.4747 102.099 61.7709 101.139 63.1961C100.239 64.5293 99.2363 65.8944 97.7403 66.6353C96.2303 67.3851 94.248 67.4487 92.5081 67.4487C90.7681 67.4487 88.7859 67.3868 87.2758 66.6371C85.7799 65.8944 84.7755 64.5293 83.8755 63.1961C82.9153 61.7726 82.1196 60.4747 82.1196 59.023C82.1196 57.5712 82.9153 56.2733 83.8755 54.8499C84.7755 53.5149 85.7799 52.1516 87.2758 51.4089C88.7859 50.6591 90.7681 50.5973 92.5081 50.5973ZM43.5858 51.812C44.2383 51.8138 44.8253 52.2064 45.0747 52.8076C45.324 53.4105 45.1861 54.1037 44.7245 54.5652C44.2648 55.025 43.5716 55.1629 42.9687 54.9136C42.3657 54.6642 41.9731 54.0754 41.9749 53.4247C41.9749 52.5353 42.6964 51.8138 43.5858 51.812ZM92.5081 52.6714C91.2986 52.6714 89.9123 52.7192 88.7576 53.2921C87.5853 53.8738 86.8603 54.8534 86.2166 55.8065C85.5412 56.8074 84.9346 57.8082 84.9346 59.0212C84.9346 60.236 85.5412 61.2368 86.2166 62.2377C86.8603 63.1908 87.5853 64.1704 88.7576 64.7521C89.9123 65.325 91.2986 65.3746 92.5081 65.3746C93.7158 65.3746 95.1021 65.325 96.2568 64.7521C97.4291 64.1704 98.1559 63.1908 98.7978 62.2377C99.4732 61.2368 100.08 60.236 100.08 59.0212C100.08 57.8082 99.4732 56.8074 98.7978 55.8065C98.1559 54.8534 97.4291 53.8738 96.2568 53.2921C95.1021 52.7192 93.7158 52.6714 92.5081 52.6714ZM92.5063 54.0294C93.562 54.0294 94.7608 54.0666 95.652 54.5086C96.5291 54.9436 97.1091 55.7305 97.6714 56.5651C98.2461 57.4174 98.7217 58.1901 98.7217 59.0212C98.7217 59.8541 98.2461 60.6268 97.6714 61.4791C97.1091 62.3137 96.5291 63.1006 95.652 63.5356C94.7626 63.9794 93.562 64.0148 92.5063 64.0148C91.4524 64.0148 90.2518 63.9776 89.3606 63.5356C88.4853 63.1006 87.9053 62.3137 87.3412 61.4791C86.7683 60.6268 86.2909 59.8541 86.2909 59.0212C86.2909 58.1901 86.7666 57.4174 87.3412 56.5651C87.9053 55.7287 88.4853 54.9436 89.3606 54.5086C90.2518 54.0666 91.4524 54.0294 92.5063 54.0294ZM92.7256 55.8985C92.043 55.8702 91.3623 55.9745 90.7168 56.2026C90.2023 56.4891 89.7726 56.9099 89.472 57.4174C89.2262 57.7834 88.8531 58.3369 88.8531 59.0212C88.8531 59.7073 89.2262 60.2608 89.472 60.6268C89.7726 61.1343 90.2023 61.5534 90.7168 61.8416C91.875 62.2518 93.1394 62.2518 94.2976 61.8416C94.8121 61.5534 95.2418 61.1343 95.5424 60.625C95.7882 60.259 96.1613 59.7073 96.1613 59.0212C96.1613 58.3369 95.7882 57.7834 95.5424 57.4174C95.2418 56.9099 94.8121 56.4891 94.2976 56.2026C93.7918 56.024 93.2631 55.9215 92.7256 55.8985ZM92.5983 57.2547C92.9678 57.2618 93.3374 57.3166 93.6946 57.4192C93.9952 57.6066 94.2427 57.8683 94.4178 58.1778C94.6282 58.4907 94.805 58.7719 94.805 59.0212C94.805 59.2723 94.6282 59.5517 94.4178 59.8664C94.2427 60.1759 93.9952 60.4376 93.6946 60.625C92.9183 60.8478 92.0961 60.8478 91.3216 60.625C91.021 60.4376 90.7717 60.1759 90.5984 59.8664C90.3862 59.5517 90.2111 59.2723 90.2111 59.0212C90.2111 58.7719 90.3862 58.4907 90.5984 58.1778C90.7717 57.8683 91.021 57.6066 91.3216 57.4192C91.7354 57.3007 92.1668 57.2441 92.5983 57.2547ZM52.9788 62.0821C52.5013 62.0626 52.0522 62.3013 51.8046 62.708L51.7905 62.731C50.5845 64.8741 48.9418 66.3789 46.903 67.2029C46.6714 67.2949 46.4645 67.4399 46.2965 67.6238C42.0439 66.6725 38.9848 65.2808 37.2077 63.4825C36.9442 63.2155 36.5145 63.212 36.2475 63.4754C35.9805 63.7389 35.9788 64.1704 36.2422 64.4374C38.1873 66.4001 41.425 67.9049 45.8651 68.9164C45.8792 69.0578 45.9093 69.1993 45.9588 69.3337C46.7598 71.4591 46.7545 73.8074 45.9411 75.9293C45.9358 75.9434 45.9305 75.9576 45.927 75.9717C45.8032 76.3925 45.8969 76.847 46.178 77.183C46.4592 77.5189 46.8907 77.694 47.3256 77.6462L47.8101 77.595L48.0011 78.0512C48.2045 78.5392 48.6801 78.8575 49.2088 78.8557C49.2566 78.8557 49.3043 78.8522 49.3521 78.8469C49.9303 78.7885 50.3989 78.3553 50.5032 77.7842L50.5934 77.2979L50.9789 77.2572C51.4015 77.2113 51.7781 76.9637 51.985 76.5924C52.1936 76.2193 52.2078 75.7701 52.0239 75.3846L50.4873 72.1682C50.4731 72.1381 50.4731 72.1045 50.4855 72.0745C50.4979 72.0462 50.5244 72.0232 50.5545 72.0126C50.5934 72.002 50.634 72.0108 50.6641 72.0391L53.587 74.7976C53.8982 75.0911 54.3297 75.2149 54.7488 75.1318C55.1661 75.0469 55.518 74.7658 55.6895 74.375L55.8469 74.0213L56.3367 74.0814C56.9131 74.1557 57.4683 73.841 57.7035 73.3122C57.9369 72.7818 57.7972 72.1593 57.3552 71.7827L56.9803 71.4609L57.1784 71.0153C57.3552 70.6157 57.3216 70.1524 57.0882 69.7828C56.853 69.4115 56.4498 69.1816 56.0113 69.171L52.1088 69.0667C52.0168 69.0649 51.9372 69.0048 51.9072 68.9181C51.8895 68.8615 51.8948 68.8014 51.9231 68.7502C51.9496 68.6989 51.9956 68.66 52.0522 68.6423L55.4649 67.622C55.8734 67.5 56.197 67.187 56.3331 66.7839C56.4693 66.3789 56.4003 65.9351 56.1492 65.5903L55.9211 65.2773L56.22 64.883C56.5718 64.4215 56.5771 63.7831 56.2359 63.3145C55.8946 62.846 55.2846 62.6567 54.7382 62.8495L54.2713 63.0139L53.9849 62.6214C53.7479 62.2978 53.3784 62.098 52.977 62.0821H52.9788ZM65.109 62.8141C64.773 62.823 64.4936 63.0758 64.4512 63.41L64.018 66.9059L60.8935 68.5327C60.6689 68.6494 60.5274 68.881 60.5274 69.1339C60.5274 69.385 60.6654 69.6184 60.8899 69.7351L63.4875 71.1072C60.8652 73.574 59.7635 77.1441 60.9889 80.3057C62.232 83.5151 65.5298 85.4213 69.1954 85.4213C70.5587 85.4177 71.9115 85.1613 73.1846 84.6644C75.5381 83.7839 77.5009 82.0934 78.7228 79.8972C79.8916 77.724 80.0826 75.3564 79.2568 73.2274C78.0243 70.0463 74.7725 68.1489 71.1458 68.1153L72.3093 65.7812C72.426 65.5514 72.3995 65.2738 72.2421 65.0686C72.0865 64.8618 71.8266 64.7627 71.5737 64.8122L68.115 65.4789L65.6023 63.0086C65.4715 62.8813 65.2929 62.8106 65.1107 62.8141H65.109ZM52.931 63.4754L53.4739 64.2199C53.6507 64.4639 53.9654 64.5612 54.2466 64.4604L55.0494 64.1792L54.5348 64.8565C54.3545 65.0952 54.3509 65.4241 54.5277 65.6663L55.0158 66.3382L51.6649 67.3409C50.924 67.5619 50.4537 68.2886 50.5545 69.0561C50.657 69.8235 51.3007 70.4017 52.0734 70.4229L55.9105 70.5255L55.5356 71.3707C55.4154 71.6448 55.4879 71.9666 55.7142 72.1611L56.3614 72.7146L55.5162 72.6085C55.2191 72.5714 54.9327 72.7323 54.8107 73.0063L54.4747 73.7649L51.5977 71.0489C51.0832 70.5644 50.2945 70.5149 49.7234 70.9304C49.1522 71.3477 48.9577 72.1134 49.2636 72.7517L50.772 75.9116L49.948 76C49.6491 76.0318 49.4069 76.2546 49.3521 76.5499L49.1965 77.3863L48.8658 76.6012C48.7597 76.3501 48.5139 76.1857 48.2398 76.1857C48.2168 76.1857 48.1921 76.1874 48.1673 76.1892L47.2549 76.2865C48.1443 73.8922 48.1373 71.2575 47.2337 68.8686C47.1753 68.7059 47.2549 68.5256 47.4141 68.4602C49.7181 67.5283 51.5748 65.852 52.9292 63.4754H52.931ZM65.6306 64.9431L67.4165 66.699C67.5757 66.8564 67.802 66.9235 68.0213 66.8811L70.4809 66.4072L69.5774 68.2179C67.795 68.4637 66.0974 69.1356 64.6298 70.1771L62.6706 69.1409L64.964 67.9474C65.162 67.8448 65.2964 67.6503 65.3229 67.4293L65.6306 64.9431ZM71.0609 69.4681C74.1748 69.4681 76.9545 71.0453 77.9889 73.7172C78.668 75.4695 78.5035 77.4358 77.5257 79.2518C76.4576 81.1651 74.7442 82.6345 72.6913 83.3984C68.3537 85.08 63.6714 83.4709 62.2532 79.8141C60.8369 76.1591 63.2152 71.8163 67.5527 70.1347C68.6702 69.6979 69.8603 69.4716 71.0609 69.4681ZM91.3676 76.5234C91.1112 76.5163 90.8548 76.5375 90.6001 76.5871C89.449 76.7922 88.549 77.6958 88.3509 78.8469C88.2413 79.0078 88.0768 79.121 87.8876 79.1669C86.7259 78.8469 85.4899 79.2943 84.802 80.2827C83.9816 81.4144 83.955 82.9386 84.7384 84.0968C85.3272 84.9986 86.4324 85.5291 87.7692 85.5521H87.8646C90.6125 85.4478 93.0739 83.8245 94.2533 81.3419C94.7821 80.0935 94.7379 78.8929 94.126 77.9575C93.562 77.0963 92.478 76.5535 91.3676 76.5234ZM4.55333 76.6914C3.48884 76.7197 2.4774 77.1723 1.74534 77.9486C1.39169 78.3182 1.11408 78.7549 0.933713 79.2341C0.371409 80.6717 0.687926 82.3056 1.74534 83.432C2.35362 84.0721 3.15464 84.4982 4.02639 84.6415L21.5215 87.6988C23.4383 88.0365 25.3197 86.942 25.9757 85.1065L36.6348 86.9702L36.6896 95.0618C36.709 97.9281 38.7761 100.372 41.6 100.865L93.3392 109.91C96.1631 110.407 98.9375 108.81 99.9259 106.117L104.244 94.3934C104.315 94.2042 104.297 93.9955 104.196 93.8205C104.095 93.6454 103.922 93.5252 103.724 93.4898L85.7763 90.3512C85.5783 90.3176 85.3749 90.3724 85.2229 90.5014C85.069 90.6305 84.9806 90.8215 84.9806 91.0213C84.9806 91.352 85.2176 91.6331 85.5429 91.6897L102.69 94.6869L98.651 105.648C97.8889 107.722 95.7511 108.955 93.5726 108.573L41.8334 99.5266C39.6567 99.1482 38.0618 97.2633 38.0476 95.0529L37.9698 83.3718L75.1314 89.8702C75.3295 89.9038 75.5311 89.849 75.6849 89.7199C75.8387 89.5908 75.9272 89.4016 75.9272 89.2C75.9272 88.8711 75.6902 88.5882 75.3649 88.5316L37.4004 81.8936C37.2024 81.86 36.999 81.9148 36.8452 82.0457C36.6914 82.1747 36.6029 82.3675 36.6047 82.5673L36.6259 85.591L26.2056 83.7679C26.2091 81.8229 24.814 80.1572 22.899 79.8194L5.35081 76.7515C5.08734 76.7055 4.82034 76.6843 4.5551 76.6914H4.55333ZM91.1695 77.8832C91.891 77.8514 92.6478 78.1803 92.9908 78.7019C93.3445 79.2447 93.3498 79.9945 93.0032 80.8114C92.0271 82.8166 90.0219 84.1198 87.7939 84.1941C86.9133 84.1799 86.2131 83.8723 85.8736 83.3542C85.405 82.6681 85.4138 81.761 85.8983 81.0837C86.176 80.677 86.6375 80.4295 87.1308 80.4242C87.2705 80.4242 87.412 80.4436 87.5464 80.4808C87.992 80.5762 88.457 80.4843 88.8319 80.2261C89.2563 79.9874 89.5639 79.5842 89.6824 79.1121C89.7708 78.4985 90.25 78.014 90.8636 77.9203C90.9644 77.9009 91.067 77.8885 91.1695 77.8832ZM4.70717 78.0494C4.84509 78.0529 4.98125 78.0653 5.1174 78.0883L22.6656 81.1562C24.0978 81.4109 25.0562 82.7795 24.8051 84.2135C24.5541 85.6476 23.1907 86.6095 21.7549 86.362L4.20675 83.294C3.51537 83.1756 2.90178 82.7848 2.50039 82.2101C1.92747 81.3967 1.86205 80.3322 2.3271 79.4534C2.79392 78.5746 3.71341 78.0335 4.70717 78.0494ZM42.1889 86.942C41.8387 86.9473 41.5505 87.2213 41.524 87.5715C41.4992 87.9216 41.7433 88.2328 42.0898 88.2911L53.4208 90.2716C53.7904 90.337 54.1423 90.0894 54.2059 89.7199C54.2713 89.3503 54.0238 88.9984 53.6542 88.9348L42.3232 86.9526C42.279 86.9455 42.2348 86.9402 42.1889 86.942ZM57.9971 89.7093C57.6505 89.7216 57.3711 89.9922 57.3463 90.337C57.3198 90.6818 57.5585 90.9913 57.898 91.0549L59.7441 91.3767C59.9846 91.4209 60.2304 91.3325 60.3877 91.1469C60.5451 90.9594 60.5893 90.703 60.5044 90.4749C60.4196 90.2451 60.2198 90.0788 59.9793 90.0399L58.1314 89.7163C58.0872 89.7093 58.043 89.7075 57.9971 89.7093Z" fill="white"/>
</svg>
