<svg width="84" height="82" viewBox="0 0 84 82" fill="none" xmlns="http://www.w3.org/2000/svg">
<path d="M4.50188 0.000242697C3.50449 -0.0114302 2.5473 0.398421 1.86768 1.13122C1.18805 1.86273 0.85083 2.84845 0.937729 3.84325L3.00903 27.5368C3.022 27.6769 2.97401 27.8169 2.87933 27.922C2.78336 28.0271 2.64717 28.0867 2.5058 28.0867C1.12579 28.0867 0.00518832 29.2034 0 30.5847L0.00778214 73.3882C0.0259403 77.6087 3.45261 81.0198 7.67303 81.0198H75.7109C79.9249 81.0172 83.3424 77.6035 83.3476 73.3882V51.4884C83.3489 50.9346 82.9053 50.482 82.3515 50.4729H58.6113V40.8544C65.8278 39.5729 71.0832 33.2968 71.0767 25.9674C71.0767 17.6342 64.2571 10.8548 55.9239 10.8548C48.0421 10.838 41.4702 16.882 40.8269 24.7379C40.1836 32.5938 45.6854 39.6248 53.4648 40.8907V45.067C52.5439 44.4483 51.4571 44.1241 50.3481 44.1358C48.4104 44.1176 46.5933 45.0761 45.5142 46.6857C43.4468 46.8984 41.7607 48.4353 41.3586 50.4729H39.3418L31.4587 19.3994C31.4561 19.3916 31.4548 19.3878 31.4522 19.38C31.2758 18.7561 30.9295 18.1945 30.4496 17.7587L27.0242 14.642C25.6481 13.3814 23.5197 13.441 22.215 14.7756L19.6677 17.3696L19.6301 11.5085C19.6288 9.55652 18.0464 7.97418 16.0931 7.97288H14.9245C14.4369 7.97288 13.979 7.74332 13.6872 7.35422C13.3954 6.96512 13.3046 6.46059 13.4421 5.99237C13.7196 5.05334 13.5938 4.04039 13.0958 3.19604C12.5977 2.353 11.7715 1.75249 10.8157 1.54108L5.24635 0.0884385C5.23209 0.0845478 5.21782 0.0819536 5.20355 0.0780625C4.97398 0.0287768 4.73793 0.00283686 4.50188 0.000242697ZM4.52522 1.99373C4.60693 1.99632 4.68735 2.0067 4.76646 2.02226L10.3319 3.4736C10.3461 3.47749 10.3591 3.48138 10.3734 3.48398C10.7936 3.57347 11.1568 3.83546 11.3773 4.20381C11.5965 4.57345 11.6522 5.01703 11.5316 5.42947C11.2164 6.4982 11.424 7.65382 12.0919 8.54745C12.7599 9.43979 13.8091 9.96507 14.9245 9.96507H16.0931C16.9479 9.96637 17.6392 10.6603 17.6379 11.515L17.6884 19.3839L16.7274 20.3618C16.1256 20.9701 15.7715 21.7833 15.7378 22.6393L14.6937 50.4729H2.01553L1.99997 30.5731C2.00127 30.4408 2.05444 30.3137 2.14912 30.2203C2.2451 30.1269 2.3735 30.0763 2.5058 30.0789C3.20618 30.0789 3.87413 29.7845 4.34753 29.2683C4.82094 28.7521 5.05569 28.0608 4.99474 27.363L2.92213 3.66945C2.88322 3.22717 3.03757 2.79008 3.34366 2.46843C3.65105 2.14807 4.08165 1.97427 4.52522 1.99373ZM55.9239 12.847C63.1586 12.847 69.0845 18.7328 69.0845 25.9674C69.0755 32.1917 64.7046 37.5574 58.6113 38.8284V23.1828C58.6061 22.1517 57.9913 21.2217 57.0445 20.8132C57.0393 20.8106 57.0134 20.808 57.0069 20.8054C55.732 20.2814 54.2715 20.8858 53.7398 22.1581C53.6127 22.4305 53.5349 22.7223 53.5089 23.0219C53.5089 23.0336 53.4648 23.0453 53.4648 23.057V27.9998L51.9408 25.2606C51.6283 24.7003 51.1043 24.2878 50.4869 24.1166C49.8682 23.9467 49.2068 24.031 48.6517 24.3527C47.4805 25.0219 47.0693 26.5109 47.7334 27.6859L52.2949 35.6469C52.863 36.6378 53.2456 37.7234 53.4246 38.8492C50.6529 38.3135 48.129 36.8972 46.2289 34.8091C42.727 30.9686 41.8217 25.424 43.9202 20.6692C46.0188 15.9144 50.7269 12.847 55.9239 12.847ZM54.2132 14.6965C54.16 14.6965 54.1068 14.7004 54.0536 14.7095C53.8565 14.738 53.6568 14.773 53.4596 14.8132C52.959 14.9144 52.6153 15.3787 52.6659 15.8885C52.7164 16.3969 53.1445 16.7847 53.6568 16.7847C53.7229 16.786 53.7904 16.7782 53.8552 16.7652C54.0186 16.7328 54.1833 16.703 54.3481 16.6796C54.8643 16.6057 55.2378 16.1466 55.2028 15.6252C55.1678 15.1051 54.7359 14.6991 54.2132 14.6965ZM24.6935 15.7289C25.0606 15.7302 25.4134 15.8677 25.6831 16.1154L29.1085 19.2334C29.3082 19.4124 29.4548 19.6446 29.5313 19.9027L37.2861 50.4729H16.6859L17.7274 22.7184C17.7416 22.3553 17.8921 22.0103 18.1489 21.7522L23.6365 16.1725C23.914 15.8885 24.2953 15.7276 24.6935 15.7289ZM50.2729 16.1128C50.0913 16.1128 49.9149 16.1634 49.7593 16.2568C46.2483 18.3579 44.1044 22.1543 44.1199 26.2476C44.1199 26.7975 44.5661 27.2437 45.116 27.2437C45.6673 27.2437 46.1134 26.7975 46.1134 26.2476C46.0992 22.8533 47.8773 19.7029 50.7904 17.9611C51.173 17.7302 51.3546 17.2711 51.234 16.8405C51.1134 16.4099 50.7204 16.1115 50.2729 16.1128ZM56.0108 22.6108C56.0912 22.6069 56.1716 22.6173 56.2482 22.6445C56.4622 22.7327 56.6061 22.9363 56.6191 23.1672V50.4729H55.457V40.3239C55.47 38.3395 54.9628 36.3862 53.9875 34.6586L49.4519 26.7041C49.3339 26.4888 49.4091 26.219 49.6205 26.0945C49.6244 26.0919 49.6426 26.0842 49.6478 26.0816C49.8592 25.9622 50.1263 26.0362 50.247 26.2476L53.6723 32.2501C53.8799 32.6392 54.3286 32.8337 54.7553 32.7183C55.1833 32.599 55.4739 32.2008 55.457 31.7559V23.0803C55.457 23.0245 55.5115 22.9714 55.5322 22.9195C55.5893 22.7937 55.6944 22.6964 55.8228 22.6484C55.8837 22.6264 55.946 22.6134 56.0108 22.6108ZM20.0671 27.542C19.5276 27.5588 19.0996 27.9998 19.0996 28.5381V29.1438C19.0996 29.6937 19.5457 30.1399 20.0957 30.1399C20.6456 30.1399 21.0918 29.6937 21.0918 29.1438V28.5381C21.0918 28.2696 20.9828 28.0115 20.7896 27.8234C20.5963 27.6367 20.3356 27.5342 20.0671 27.542ZM20.0671 31.3642C19.5276 31.3811 19.0996 31.8221 19.0996 32.3603V43.6234C19.0996 44.1734 19.5457 44.6195 20.0957 44.6195C20.6456 44.6195 21.0918 44.1734 21.0918 43.6234V32.3603C21.0918 32.0918 20.9828 31.8337 20.7896 31.6457C20.5963 31.4589 20.3356 31.3564 20.0671 31.3655V31.3642ZM50.3481 46.1241C51.5984 46.1163 52.7683 46.7375 53.4648 47.7764V50.4729H43.4274C43.7983 49.4768 44.7944 48.6584 45.9656 48.6584C45.998 48.6584 46.0304 48.6791 46.0629 48.6804C46.4455 48.7012 46.806 48.4989 46.9876 48.1616C47.6374 46.9061 48.9344 46.1202 50.3481 46.1241ZM2.01294 52.4651H81.3554V73.3882C81.3515 76.5036 78.8263 79.0263 75.7109 79.0276H17.6625C15.8739 79.0276 14.4252 77.5788 14.4252 75.7903C14.4252 74.0017 15.8739 72.553 17.6625 72.553H22.2137C24.368 72.553 26.115 70.8059 26.115 68.6516C26.115 66.4973 24.368 64.7502 22.2137 64.7502H18.3642C16.8143 64.7373 15.564 63.4779 15.564 61.928C15.564 59.2782 13.4226 57.1278 10.7729 57.1135H5.77293C4.77554 57.1252 3.81447 56.7348 3.10761 56.0318C2.39945 55.3275 2.00516 54.3704 2.01164 53.3717L2.01294 52.4651ZM41.0461 56.8645C39.9047 56.8645 39.2964 57.3872 38.8528 57.7698C38.5143 58.0603 38.36 58.1926 37.9579 58.1926C37.408 58.1926 36.9618 58.6388 36.9618 59.1887C36.9618 59.7386 37.408 60.1848 37.9579 60.1848C39.0993 60.1848 39.7076 59.6621 40.1511 59.2795C40.4897 58.989 40.6427 58.8567 41.0461 58.8567C41.4481 58.8567 41.6025 58.989 41.9397 59.2795C42.3846 59.6621 42.9916 60.1848 44.1342 60.1848C44.6841 60.1848 45.1303 59.7386 45.1303 59.1887C45.1303 58.6388 44.6841 58.1926 44.1342 58.1926C43.7309 58.1926 43.5765 58.0603 43.2393 57.7698C42.7957 57.3872 42.1874 56.8645 41.0461 56.8645ZM72.589 56.8645C71.4477 56.8645 70.8394 57.3872 70.3945 57.7698C70.0573 58.0603 69.903 58.1926 69.5009 58.1926C68.951 58.1926 68.5048 58.6388 68.5048 59.1887C68.5048 59.7386 68.951 60.1848 69.5009 60.1848C70.6422 60.1848 71.2505 59.6621 71.6941 59.2795C72.0326 58.989 72.1857 58.8567 72.589 58.8567C72.9911 58.8567 73.1454 58.989 73.4827 59.2795C73.9275 59.6621 74.5345 60.1848 75.6759 60.1848C76.2271 60.1848 76.672 59.7386 76.672 59.1887C76.672 58.6388 76.2271 58.1926 75.6759 58.1926C75.2738 58.1926 75.1195 58.0603 74.7823 57.7698C74.3387 57.3872 73.7304 56.8645 72.589 56.8645ZM1.99997 57.7451C3.04924 58.644 4.39163 59.1277 5.77293 59.1057H10.7729C12.3228 59.1187 13.5731 60.3781 13.5718 61.928C13.5731 64.5777 15.7144 66.7281 18.3642 66.7424H22.2137C23.2681 66.7424 24.1228 67.5971 24.1228 68.6516C24.1228 69.7061 23.2681 70.5608 22.2137 70.5608H17.6625C16.2682 70.553 14.9297 71.1003 13.9401 72.0809C12.9518 73.0627 12.3928 74.3973 12.3902 75.7903C12.3772 76.9718 12.7845 78.1184 13.5394 79.0276H7.6445C4.52911 79.0263 2.00386 76.5036 1.99997 73.3882V57.7451ZM21.1242 57.8606C19.9828 57.8606 19.3745 58.3833 18.931 58.7659C18.5925 59.0564 18.4381 59.1887 18.036 59.1887C17.4861 59.1887 17.0399 59.6349 17.0399 60.1848C17.0399 60.7347 17.4861 61.1809 18.036 61.1809C19.1774 61.1809 19.7857 60.6582 20.2293 60.2756C20.5678 59.9851 20.7208 59.8528 21.1242 59.8528C21.5263 59.8528 21.6806 59.9851 22.0178 60.2756C22.4627 60.6582 23.0697 61.1809 24.2123 61.1809C24.7623 61.1809 25.2084 60.7347 25.2084 60.1848C25.2084 59.6349 24.7623 59.1887 24.2123 59.1887C23.809 59.1887 23.6546 59.0564 23.3174 58.7659C22.8738 58.3833 22.2655 57.8606 21.1242 57.8606ZM55.9875 64.9993C54.8461 64.9993 54.2378 65.5219 53.7943 65.9046C53.4557 66.1951 53.3014 66.3274 52.8993 66.3274C52.3494 66.3274 51.9032 66.7735 51.9032 67.3235C51.9032 67.8734 52.3494 68.3196 52.8993 68.3196C54.0407 68.3196 54.649 67.7969 55.0925 67.4143C55.4311 67.1237 55.5841 66.9914 55.9875 66.9914C56.3895 66.9914 56.5439 67.1237 56.8811 67.4143C57.326 67.7969 57.933 68.3196 59.0743 68.3196C59.6255 68.3196 60.0717 67.8734 60.0717 67.3235C60.0717 66.7735 59.6255 66.3274 59.0743 66.3274C58.6723 66.3274 58.5179 66.1951 58.1807 65.9046C57.7371 65.5219 57.1288 64.9993 55.9875 64.9993ZM41.0461 73.7981C39.9047 73.7981 39.2964 74.3208 38.8528 74.7034C38.5143 74.9939 38.36 75.1262 37.9579 75.1262C37.408 75.1262 36.9618 75.5724 36.9618 76.1223C36.9618 76.6722 37.408 77.1184 37.9579 77.1184C39.0993 77.1184 39.7076 76.5957 40.1511 76.2131C40.4897 75.9226 40.6427 75.7903 41.0461 75.7903C41.4481 75.7903 41.6025 75.9226 41.9397 76.2131C42.3846 76.5957 42.9916 77.1184 44.1342 77.1184C44.6841 77.1184 45.1303 76.6722 45.1303 76.1223C45.1303 75.5724 44.6841 75.1262 44.1342 75.1262C43.7309 75.1262 43.5765 74.9939 43.2393 74.7034C42.7957 74.3208 42.1874 73.7981 41.0461 73.7981ZM72.589 73.7981C71.4477 73.7981 70.8394 74.3208 70.3945 74.7034C70.0573 74.9939 69.903 75.1262 69.5009 75.1262C68.951 75.1262 68.5048 75.5724 68.5048 76.1223C68.5048 76.6722 68.951 77.1184 69.5009 77.1184C70.6422 77.1184 71.2505 76.5957 71.6941 76.2131C72.0326 75.9226 72.1857 75.7903 72.589 75.7903C72.9911 75.7903 73.1454 75.9226 73.4827 76.2131C73.9275 76.5957 74.5345 77.1184 75.6759 77.1184C76.2271 77.1184 76.672 76.6722 76.672 76.1223C76.672 75.5724 76.2271 75.1262 75.6759 75.1262C75.2738 75.1262 75.1195 74.9939 74.7823 74.7034C74.3387 74.3208 73.7304 73.7981 72.589 73.7981Z" fill="white"/>
</svg>
