<svg width="54" height="90" viewBox="0 0 54 90" fill="none" xmlns="http://www.w3.org/2000/svg">
<path d="M26.1383 0C16.4621 0 8.61702 7.84508 8.61702 17.5213V22.5957C8.61702 23.2301 9.13165 23.7447 9.76596 23.7447C10.4003 23.7447 10.9149 23.2301 10.9149 22.5957V17.4764C10.9149 11.7452 13.9787 6.74551 18.766 4.14844V11.8753C18.757 12.5081 19.2477 13.0347 19.879 13.0721C20.1902 13.0811 20.4924 12.9644 20.7153 12.7475C20.9382 12.5306 21.0638 12.2329 21.0638 11.9232V3.11769C22.4806 2.61054 23.9646 2.3248 25.4681 2.26945V13.5987C25.4591 14.2315 25.9498 14.7581 26.5811 14.7955C26.8923 14.8045 27.1945 14.6878 27.4174 14.4709C27.6403 14.254 27.766 13.9563 27.766 13.6466V2.26945C29.2694 2.3248 30.7535 2.61054 32.1702 3.11769V11.8753C32.1612 12.5081 32.6519 13.0347 33.2832 13.0721C33.5944 13.0811 33.8966 12.9644 34.1195 12.7475C34.3424 12.5306 34.4681 12.2329 34.4681 11.9232V4.14844C39.2553 6.74402 42.3191 11.7437 42.3191 17.4764V32.1702H10.9149V30.6383C10.9149 30.004 10.4003 29.4894 9.76596 29.4894C9.13165 29.4894 8.61702 30.004 8.61702 30.6383V49.3085C8.61702 58.9847 16.4621 66.8298 26.1383 66.8298H27.0957C36.7719 66.8298 44.617 58.9847 44.617 49.3085V17.5213C44.617 7.84508 36.7719 0 27.0957 0H26.1383ZM10.9149 34.4681H42.3191V49.301C42.3296 57.6981 35.5332 64.5155 27.1361 64.5319H26.0979C17.7008 64.5155 10.9044 57.6981 10.9149 49.301V34.4681ZM14.9033 36.0673C14.2809 36.0853 13.7872 36.5939 13.7872 37.2163V38.1303C13.7872 38.7646 14.3019 39.2793 14.9362 39.2793C15.5705 39.2793 16.0851 38.7646 16.0851 38.1303V37.2163C16.0851 36.9051 15.9594 36.6074 15.7365 36.3905C15.5136 36.175 15.2129 36.0583 14.9033 36.0673ZM1.11602 36.7959C0.493683 36.8138 0 37.3225 0 37.9433V48.6937C0 62.9297 11.2111 74.5926 25.2766 75.2927V87.7021H18.5745C17.9402 87.7021 17.4255 88.2168 17.4255 88.8511C17.4255 89.4854 17.9402 90 18.5745 90H34.6596C35.2939 90 35.8085 89.4854 35.8085 88.8511C35.8085 88.2168 35.2939 87.7021 34.6596 87.7021H27.5745V75.3077C41.818 74.802 53.234 63.0583 53.234 48.6922V37.9433C53.234 37.309 52.7194 36.7944 52.0851 36.7944C51.4508 36.7944 50.9362 37.309 50.9362 37.9433V48.6922C50.9242 62.0485 40.1604 72.9036 26.8055 73.0263L26.056 73.0218C12.8492 72.6986 2.30834 61.9034 2.29787 48.6922V37.9433C2.29787 37.6336 2.17221 37.3359 1.9493 37.1205C1.7264 36.9036 1.4257 36.7869 1.11602 36.7959ZM14.9033 41.1612C14.2809 41.1792 13.7872 41.6878 13.7872 42.3087V51.5346C13.7872 52.1689 14.3019 52.6835 14.9362 52.6835C15.5705 52.6835 16.0851 52.1689 16.0851 51.5346V42.3087C16.0851 41.999 15.9594 41.7013 15.7365 41.4844C15.5136 41.269 15.2129 41.1523 14.9033 41.1612Z" fill="white"/>
</svg>
