<svg width="67" height="100" viewBox="0 0 67 100" fill="none" xmlns="http://www.w3.org/2000/svg">
<path d="M65.4129 72.1647H40.7588V59.44C40.7635 55.8441 43.6604 52.9192 47.2563 52.8804C48.8422 54.659 51.1395 55.6329 53.5208 55.5366C55.9004 55.4403 58.1123 54.2846 59.5491 52.3834C59.8163 52.0292 59.8163 51.5415 59.5491 51.1858C58.0844 49.2472 55.8134 48.0838 53.3841 48.0279C50.9547 47.9704 48.6325 49.0282 47.0776 50.8968C42.455 51.032 38.7752 54.8158 38.7706 59.44V72.1647H30.4386V58.9181C30.4386 57.2638 31.7791 55.9233 33.4318 55.9233C36.1827 55.9202 38.4102 53.6912 38.4133 50.9403V47.4951C38.7131 47.2528 39.002 46.9949 39.2754 46.7231C41.3133 44.696 42.4566 41.9358 42.4488 39.0606V34.9879C44.131 36.2911 46.2653 36.8658 48.3762 36.5862C50.4856 36.3066 52.3962 35.1945 53.6808 33.4967C53.9479 33.1425 53.9479 32.6532 53.6808 32.2991C52.3962 30.6013 50.4856 29.4876 48.3762 29.208C46.2668 28.9269 44.131 29.5031 42.4488 30.8064V28.9067C44.232 27.3238 45.2106 25.0234 45.1174 22.6406C45.0226 20.2578 43.867 18.0428 41.9642 16.6045C41.61 16.3357 41.1207 16.3357 40.765 16.6045C38.8296 18.0677 37.6677 20.334 37.6071 22.7602C37.5481 25.1849 38.5981 27.5056 40.4606 29.062V30.8871C38.7814 29.542 36.6301 28.9331 34.4943 29.1987C32.3601 29.4643 30.4231 30.5827 29.1245 32.2991C28.8573 32.6532 28.8573 33.1425 29.1245 33.4967C30.4231 35.2115 32.3601 36.3284 34.4959 36.594C36.6301 36.8596 38.7814 36.2507 40.4606 34.9071V39.0606C40.4652 41.1296 39.7398 43.135 38.4117 44.7209V44.5609C38.4102 41.8115 36.1827 39.5825 33.4318 39.5794H20.8982C19.2455 39.5779 17.9065 38.2389 17.9034 36.5862V28.2574C19.5841 29.5963 21.7323 30.2006 23.8635 29.9334C25.9946 29.6647 27.9285 28.5494 29.2255 26.8361C29.4926 26.482 29.4926 25.9927 29.2255 25.6385C27.9285 23.9252 25.9962 22.8068 23.865 22.5397C21.7323 22.2725 19.5825 22.8767 17.9034 24.2157V18.515C19.5841 19.854 21.7323 20.4582 23.8635 20.1911C25.9946 19.9223 27.9285 18.8071 29.2239 17.0938C29.4926 16.7396 29.4926 16.2503 29.2239 15.8962C27.9285 14.1829 25.9962 13.0645 23.8635 12.7973C21.7323 12.5286 19.5825 13.1344 17.9034 14.4733V12.5845C19.7255 11.0141 20.7398 8.70279 20.6621 6.29827C20.586 3.89375 19.4272 1.65388 17.5089 0.201542C17.1547 -0.0671805 16.6639 -0.0671805 16.3097 0.201542C14.3898 1.65233 13.2295 3.89375 13.1534 6.29827C13.0773 8.70435 14.0916 11.0141 15.9152 12.5845V14.4143C14.233 13.1049 12.0956 12.5239 9.98155 12.802C7.86906 13.0816 5.95538 14.1953 4.66924 15.8962C4.40207 16.2503 4.40207 16.7396 4.66924 17.0938C5.95538 18.7931 7.86906 19.9052 9.98311 20.1833C12.0956 20.4613 14.233 19.8819 15.9152 18.5741V24.1567C14.233 22.8472 12.0956 22.2663 9.98155 22.5443C7.86906 22.8239 5.95538 23.9376 4.66924 25.6385C4.40207 25.9927 4.40207 26.482 4.66924 26.8361C5.95538 28.5354 7.86906 29.6476 9.98311 29.9256C12.0956 30.2037 14.2314 29.6243 15.9152 28.3164V36.5862C15.9183 39.3356 18.1473 41.5646 20.8966 41.5661H33.4303C35.0846 41.5677 36.4235 42.9082 36.4251 44.5609V46.4854C34.9929 47.4174 33.3216 47.9129 31.6129 47.9083C25.6311 47.916 20.7833 52.7624 20.777 58.7441V72.1647H0.994117C0.445799 72.1647 0 72.6105 0 73.1588V89.8243C0.00621323 95.4426 4.55896 99.9938 10.1757 100H56.2313C61.848 99.9938 66.4008 95.4426 66.407 89.8243V73.1588C66.407 72.6105 65.9612 72.1647 65.4129 72.1647ZM53.1992 50.0146C54.796 50.0068 56.3276 50.6452 57.4475 51.7853C56.3229 52.9192 54.7945 53.5561 53.1992 53.5561C51.604 53.5546 50.074 52.9177 48.9525 51.7838C50.0709 50.6452 51.6024 50.0068 53.1992 50.0146ZM47.3293 31.1263C48.9276 31.1186 50.4592 31.757 51.5776 32.8971C50.4545 34.0295 48.9245 34.6679 47.3293 34.6679C45.734 34.6679 44.204 34.0295 43.081 32.8971C44.2009 31.7585 45.7325 31.1186 47.3293 31.1263ZM39.5938 22.9559C39.5876 21.3591 40.226 19.8276 41.3646 18.7076C42.4969 19.8322 43.1338 21.3607 43.1338 22.9559C43.1338 24.5512 42.4969 26.0796 41.3646 27.2027C40.226 26.0843 39.5876 24.5527 39.5938 22.9559ZM35.476 34.6679C33.8792 34.6756 32.3476 34.0372 31.2277 32.8971C32.3507 31.7648 33.8807 31.1263 35.476 31.1263C37.0728 31.1263 38.6012 31.7648 39.7243 32.8971C38.6059 34.0372 37.0728 34.6741 35.476 34.6679ZM22.874 24.4658C24.4724 24.458 26.0039 25.0964 27.1223 26.2365C25.9993 27.3689 24.4693 28.0073 22.874 28.0073C21.2788 28.0073 19.7488 27.3689 18.6257 26.2365C19.7456 25.098 21.2772 24.458 22.874 24.4658ZM22.874 14.7234C24.4724 14.7156 26.0039 15.3541 27.1223 16.4942C25.9993 17.6265 24.4693 18.265 22.874 18.265C21.2788 18.265 19.7488 17.6265 18.6257 16.4942C19.7456 15.3556 21.2772 14.7156 22.874 14.7234ZM11.0207 18.265C9.42392 18.2727 7.89236 17.6343 6.77242 16.4942C7.89546 15.3618 9.42547 14.7234 11.0207 14.7234C12.6175 14.7234 14.146 15.3618 15.269 16.4942C14.1506 17.6343 12.6175 18.2712 11.0207 18.265ZM11.0207 28.0073C9.42392 28.0151 7.89236 27.3767 6.77242 26.2365C7.89546 25.1042 9.42547 24.4658 11.0207 24.4658C12.6175 24.4658 14.146 25.1042 15.269 26.2365C14.1506 27.3767 12.6175 28.0135 11.0207 28.0073ZM16.9093 10.7998C15.7769 9.67827 15.1385 8.14826 15.1385 6.55302C15.1385 4.95777 15.7769 3.42776 16.9093 2.30472C18.0417 3.42931 18.6785 4.95777 18.6785 6.55302C18.6785 8.14826 18.0417 9.67672 16.9093 10.7998ZM22.7653 58.7441C22.7715 53.8605 26.7293 49.9027 31.6129 49.8965C33.2827 49.8996 34.9292 49.5144 36.4251 48.7719V50.9403C36.4235 52.5931 35.0846 53.932 33.4318 53.9351C32.1115 53.9351 30.844 54.4601 29.9089 55.3952C28.9754 56.3288 28.4504 57.5963 28.4504 58.9181V72.1647H22.7653V58.7441ZM64.4188 89.8243C64.4141 94.3444 60.7514 98.0071 56.2313 98.0118H10.1757C5.65559 98.0071 1.99289 94.3444 1.98823 89.8243V74.153H64.4188V89.8243Z" fill="white"/>
</svg>
